0
SECTION
2
HEADER
9
$INSUNITS
70
4
9
$ACADVER
1
AC1014
9
$HANDSEED
5
FFFF
0
ENDSEC
0
SECTION
2
TABLES
0
TABLE
2
VPORT
5
8
100
AcDbSymbolTable
0
ENDTAB
0
TABLE
2
LTYPE
5
5
100
AcDbSymbolTable
0
LTYPE
5
14
100
AcDbSymbolTableRecord
100
AcDbLinetypeTableRecord
2
BYBLOCK
70
0
0
LTYPE
5
15
100
AcDbSymbolTableRecord
100
AcDbLinetypeTableRecord
2
BYLAYER
70
0
0
ENDTAB
0
TABLE
2
LAYER
5
2
100
AcDbSymbolTable
70
2
0
LAYER
5
50
100
AcDbSymbolTableRecord
100
AcDbLayerTableRecord
2
0
70
0
6
CONTINUOUS
0
ENDTAB
0
TABLE
2
STYLE
5
3
100
AcDbSymbolTable
70
1
0
STYLE
5
11
100
AcDbSymbolTableRecord
100
AcDbTextStyleTableRecord
2
STANDARD
70
0
0
ENDTAB
0
TABLE
2
VIEW
5
6
100
AcDbSymbolTable
70
0
0
ENDTAB
0
TABLE
2
UCS
5
7
100
AcDbSymbolTable
70
0
0
ENDTAB
0
TABLE
2
APPID
5
9
100
AcDbSymbolTable
70
2
0
APPID
5
12
100
AcDbSymbolTableRecord
100
AcDbRegAppTableRecord
2
ACAD
70
0
0
ENDTAB
0
TABLE
2
DIMSTYLE
5
A
100
AcDbSymbolTable
70
1
0
ENDTAB
0
TABLE
2
BLOCK_RECORD
5
1
100
AcDbSymbolTable
70
1
0
BLOCK_RECORD
5
1F
100
AcDbSymbolTableRecord
100
AcDbBlockTableRecord
2
*MODEL_SPACE
0
BLOCK_RECORD
5
1B
100
AcDbSymbolTableRecord
100
AcDbBlockTableRecord
2
*PAPER_SPACE
0
ENDTAB
0
ENDSEC
0
SECTION
2
BLOCKS
0
BLOCK
5
20
100
AcDbEntity
100
AcDbBlockBegin
2
*MODEL_SPACE
0
ENDBLK
5
21
100
AcDbEntity
100
AcDbBlockEnd
0
BLOCK
5
1C
100
AcDbEntity
100
AcDbBlockBegin
2
*PAPER_SPACE
0
ENDBLK
5
1D
100
AcDbEntity
100
AcDbBlockEnd
0
ENDSEC
0
SECTION
2
ENTITIES
0
LWPOLYLINE
5
100
100
AcDbEntity
8
0
100
AcDbPolyline
90
8
70
1
43
0.0
10
55.662500000000001
20
-54.625000000000043
42
-0.41421356237305862
10
55.162499999999994
20
-54.125000000000021
10
55.162500000000009
20
-41.125
42
-0.41421356237305862
10
55.662500000000001
20
-40.625
10
68.662499999999966
20
-40.624999999999993
42
-0.41421356237309503
10
69.16249999999998
20
-41.125
10
69.162499999999994
20
-54.125000000000021
42
-0.41421356237311063
10
68.662499999999966
20
-54.625
0
LWPOLYLINE
5
101
100
AcDbEntity
8
0
100
AcDbPolyline
90
8
70
1
43
0.0
10
97.237499999999983
20
-59.674999999999983
42
-0.41421356237314183
10
97.737499999999997
20
-60.174999999999997
10
97.737499999999997
20
-73.174999999999983
42
-0.41421356237313667
10
97.237499999999983
20
-73.674999999999983
10
84.237499999999983
20
-73.675000000000011
42
-0.41421356237310542
10
83.737499999999983
20
-73.174999999999983
10
83.737500000000011
20
-60.174999999999997
42
-0.41421356237307944
10
84.237499999999955
20
-59.675000000000018
0
LWPOLYLINE
5
102
100
AcDbEntity
8
0
100
AcDbPolyline
90
8
70
1
43
0.0
10
74.712499999999977
20
-54.625000000000014
42
-0.41421356237310542
10
74.212500000000006
20
-54.125000000000021
10
74.212499999999977
20
-41.125
42
-0.41421356237309503
10
74.712499999999977
20
-40.625
10
87.71250000000002
20
-40.624999999999993
42
-0.41421356237307422
10
88.212499999999991
20
-41.125
10
88.212500000000006
20
-54.125000000000021
42
-0.41421356237310025
10
87.71250000000002
20
-54.625000000000021
0
LWPOLYLINE
5
103
100
AcDbEntity
8
0
100
AcDbPolyline
90
8
70
1
43
0.0
10
93.262500000000017
20
-54.125000000000021
10
93.262499999999989
20
-41.125
42
-0.41421356237300139
10
93.762499999999989
20
-40.625000000000014
10
106.76250000000003
20
-40.625000000000014
42
-0.41421356237310025
10
107.2625
20
-41.125
10
107.2625
20
-54.125000000000021
42
-0.41421356237310542
10
106.76250000000003
20
-54.625000000000021
10
93.762499999999989
20
-54.625000000000028
42
-0.41421356237294937
0
LWPOLYLINE
5
104
100
AcDbEntity
8
0
100
AcDbPolyline
90
8
70
1
43
0.0
10
64.687500000000014
20
-60.174999999999997
42
-0.41421356237311585
10
65.187499999999972
20
-59.675000000000004
10
78.187499999999972
20
-59.674999999999997
42
-0.41421356237309503
10
78.687499999999986
20
-60.174999999999997
10
78.687499999999986
20
-73.174999999999983
42
-0.41421356237308982
10
78.187499999999972
20
-73.674999999999983
10
65.187499999999972
20
-73.674999999999997
42
-0.41421356237311585
10
64.6875
20
-73.174999999999983
0
LWPOLYLINE
5
105
100
AcDbEntity
8
0
100
AcDbPolyline
90
8
70
1
43
0.0
10
173.4375
20
-59.675000000000004
10
160.43749999999994
20
-59.675000000000011
42
0.41421356237306384
10
159.9375
20
-60.174999999999997
10
159.9375
20
-73.174999999999983
42
0.41421356237308982
10
160.4375
20
-73.675000000000054
10
173.4375
20
-73.674999999999983
42
0.41421356237300661
10
173.9375
20
-73.174999999999983
10
173.9375
20
-60.174999999999997
42
0.41421356237292334
0
LWPOLYLINE
5
106
100
AcDbEntity
8
0
100
AcDbPolyline
90
8
70
1
43
0.0
10
256.78125
20
-59.674999999999983
10
243.78125000000011
20
-59.675000000000047
42
0.4142135623730222
10
243.28125
20
-60.174999999999997
10
243.28125000000006
20
-73.174999999999983
42
0.41421356237307422
10
243.78125000000009
20
-73.675000000000097
10
256.78125
20
-73.674999999999969
42
0.41421356237310025
10
257.28125000000006
20
-73.174999999999983
10
257.28124999999989
20
-60.174999999999997
42
0.41421356237312101
0
LWPOLYLINE
5
107
100
AcDbEntity
8
0
100
AcDbPolyline
90
8
70
1
43
0.0
10
249.63075000000001
20
-41.625000000000007
10
255.63075000000003
20
-41.624999999999979
42
-0.4142135623730846
10
256.13075000000003
20
-42.125
10
256.13075000000003
20
-56.125000000000007
42
-0.41421356237304818
10
255.63075000000003
20
-56.625000000000043
10
249.63075000000001
20
-56.625000000000014
42
-0.41421356237294937
10
249.13075000000003
20
-56.125000000000007
10
249.13074999999998
20
-42.125
42
-0.41421356237316787
0
LWPOLYLINE
5
108
100
AcDbEntity
8
0
100
AcDbPolyline
90
8
70
1
43
0.0
10
221.0625
20
-40.624999999999993
10
208.0625
20
-40.624999999999964
42
0.41421356237304818
10
207.56250000000009
20
-41.125
10
207.56250000000009
20
-54.125000000000021
42
0.41421356237309503
10
208.0625
20
-54.624999999999993
10
221.06250000000011
20
-54.625000000000043
42
0.41421356237316265
10
221.5625
20
-54.125000000000021
10
221.5625
20
-41.125
42
0.4142135623732251
0
LWPOLYLINE
5
109
100
AcDbEntity
8
0
100
AcDbPolyline
90
8
70
1
43
0.0
10
280.00675000000001
20
-56.125000000000007
10
280.00675000000001
20
-42.125
42
0.41421356237321988
10
279.50675000000001
20
-41.625
10
273.50675000000001
20
-41.625
42
0.41421356237307422
10
273.00675000000007
20
-42.125
10
273.00675000000001
20
-56.125000000000007
42
0.41421356237289214
10
273.50675000000001
20
-56.625000000000021
10
279.50675000000001
20
-56.625000000000085
42
0.4142135623731783
0
LWPOLYLINE
5
110
100
AcDbEntity
8
0
100
AcDbPolyline
90
8
70
1
43
0.0
10
163.91250000000014
20
-54.625000000000021
10
150.91249999999999
20
-54.625000000000014
42
-0.4142135623730846
10
150.41249999999997
20
-54.125000000000021
10
150.41249999999997
20
-41.125
42
-0.41421356237310542
10
150.91249999999999
20
-40.625000000000014
10
163.91250000000002
20
-40.625
42
-0.41421356237313145
10
164.41250000000002
20
-41.125
10
164.41250000000002
20
-54.125000000000021
42
-0.41421356237316265
0
LWPOLYLINE
5
111
100
AcDbEntity
8
0
100
AcDbPolyline
90
8
70
1
43
0.0
10
271.06875000000002
20
-40.624999999999964
10
258.06875000000002
20
-40.625
42
0.41421356237313145
10
257.56875000000002
20
-41.125
10
257.56875000000008
20
-54.125000000000021
42
0.41421356237313667
10
258.06875000000008
20
-54.625000000000021
10
271.06875000000002
20
-54.625000000000014
42
0.41421356237291812
10
271.56875000000002
20
-54.125000000000021
10
271.56875000000002
20
-41.125
42
0.41421356237290252
0
LWPOLYLINE
5
112
100
AcDbEntity
8
0
100
AcDbPolyline
90
8
70
1
43
0.0
10
230.58750000000001
20
-59.675000000000018
10
217.58749999999998
20
-59.674999999999955
42
0.41421356237307422
10
217.08750000000006
20
-60.174999999999997
10
217.08750000000003
20
-73.174999999999983
42
0.41421356237307422
10
217.58749999999998
20
-73.674999999999983
10
230.58750000000001
20
-73.67500000000004
42
0.41421356237299617
10
231.08750000000009
20
-73.174999999999983
10
231.08750000000009
20
-60.174999999999997
42
0.41421356237294416
0
LWPOLYLINE
5
113
100
AcDbEntity
8
0
100
AcDbPolyline
90
8
70
1
43
0.0
10
150.125
20
-16.024999999999999
42
-0.41421356237310542
10
149.625
20
-16.524999999999991
10
136.625
20
-16.525000000000031
42
-0.41421356237298446
10
136.125
20
-16.024999999999999
10
136.125
20
-3.0249999999999999
42
-0.41421356237305273
10
136.625
20
-2.5249999999999946
10
149.625
20
-2.5249999999999955
42
-0.41421356237309342
10
150.125
20
-3.0249999999999999
0
LWPOLYLINE
5
114
100
AcDbEntity
8
0
100
AcDbPolyline
90
8
70
1
43
0.0
10
159.14999999999998
20
-35.575000000000003
42
0.41421356237309243
10
159.65000000000001
20
-35.075000000000003
10
159.65000000000001
20
-22.074999999999999
42
0.41421356237309503
10
159.14999999999998
20
-21.574999999999992
10
146.15000000000003
20
-21.575000000000024
42
0.41421356237304563
10
145.65000000000003
20
-22.074999999999999
10
145.65000000000001
20
-35.075000000000003
42
0.41421356237309243
10
146.15000000000003
20
-35.575000000000031
0
LWPOLYLINE
5
115
100
AcDbEntity
8
0
100
AcDbPolyline
90
8
70
1
43
0.0
10
178.98750000000001
20
-60.174999999999997
42
-0.41421356237315227
10
179.48750000000001
20
-59.674999999999969
10
192.48750000000001
20
-59.674999999999997
42
-0.41421356237307422
10
192.98750000000007
20
-60.174999999999997
10
192.98750000000007
20
-73.174999999999983
42
-0.41421356237310025
10
192.48750000000001
20
-73.674999999999983
10
179.48749999999993
20
-73.675000000000054
42
-0.41421356237313145
10
178.98750000000001
20
-73.174999999999983
0
LWPOLYLINE
5
116
100
AcDbEntity
8
0
100
AcDbPolyline
90
8
70
1
43
0.0
10
198.03750000000008
20
-60.174999999999997
42
-0.41421356237307944
10
198.53749999999997
20
-59.674999999999983
10
211.53749999999999
20
-59.674999999999969
42
-0.41421356237311063
10
212.03749999999999
20
-60.174999999999997
10
212.03749999999999
20
-73.174999999999983
42
-0.41421356237317308
10
211.53749999999999
20
-73.674999999999983
10
198.53749999999997
20
-73.674999999999997
42
-0.41421356237307422
10
198.03750000000002
20
-73.174999999999983
0
LWPOLYLINE
5
117
100
AcDbEntity
8
0
100
AcDbPolyline
90
8
70
1
43
0.0
10
169.46249999999998
20
-54.125000000000021
10
169.46249999999998
20
-41.125
42
-0.4142135623730534
10
169.96250000000003
20
-40.624999999999964
10
182.96250000000003
20
-40.624999999999993
42
-0.41421356237307422
10
183.46250000000001
20
-41.125
10
183.46250000000003
20
-54.125000000000021
42
-0.41421356237328755
10
182.96250000000003
20
-54.625
10
169.96250000000001
20
-54.625000000000021
42
-0.41421356237313145
0
LWPOLYLINE
5
118
100
AcDbEntity
8
0
100
AcDbPolyline
90
8
70
1
43
0.0
10
189.01249999999999
20
-54.624999999999993
10
202.01249999999999
20
-54.625000000000028
42
0.41421356237326151
10
202.51249999999999
20
-54.125000000000021
10
202.51249999999999
20
-41.125
42
0.41421356237303258
10
202.0125000000001
20
-40.624999999999936
10
189.01249999999999
20
-40.625000000000007
42
0.41421356237291812
10
188.51249999999996
20
-41.125
10
188.51249999999996
20
-54.125000000000021
42
0.41421356237315227
0
LWPOLYLINE
5
119
100
AcDbEntity
8
0
100
AcDbPolyline
90
8
70
1
43
0.0
10
240.61250000000001
20
-41.125
42
0.4142135623732251
10
240.11250000000001
20
-40.624999999999993
10
227.11250000000001
20
-40.624999999999993
42
0.41421356237294937
10
226.61250000000001
20
-41.125
10
226.61250000000007
20
-54.125000000000021
42
0.41421356237302737
10
227.11250000000001
20
-54.624999999999993
10
240.11250000000007
20
-54.624999999999986
42
0.4142135623731939
10
240.61250000000001
20
-54.125000000000021
0
LWPOLYLINE
5
120
100
AcDbEntity
8
0
100
AcDbPolyline
90
8
70
1
43
0.0
10
82.950000000000017
20
-21.574999999999989
42
-0.41421356237307683
10
83.449999999999989
20
-22.074999999999999
10
83.449999999999989
20
-35.075000000000003
42
-0.41421356237305079
10
82.950000000000017
20
-35.575000000000038
10
69.949999999999974
20
-35.575000000000031
42
-0.41421356237304302
10
69.450000000000003
20
-35.075000000000003
10
69.449999999999989
20
-22.074999999999999
42
-0.41421356237309503
10
69.949999999999974
20
-21.57500000000001
0
LWPOLYLINE
5
121
100
AcDbEntity
8
0
100
AcDbPolyline
90
8
70
1
43
0.0
10
117.575
20
-16.525000000000002
10
130.57499999999999
20
-16.525000000000009
42
0.41421356237309631
10
131.07499999999999
20
-16.024999999999999
10
131.07499999999999
20
-3.0249999999999999
42
0.41421356237309404
10
130.57499999999999
20
-2.5249999999999946
10
117.575
20
-2.5250000000000368
42
0.41421356237317342
10
117.07500000000003
20
-3.0249999999999999
10
117.07500000000007
20
-16.024999999999999
42
0.41421356237296886
0
LWPOLYLINE
5
122
100
AcDbEntity
8
0
100
AcDbPolyline
90
8
70
1
43
0.0
10
140.09999999999997
20
-21.574999999999992
10
127.10000000000001
20
-21.575000000000006
42
0.41421356237308721
10
126.60000000000004
20
-22.074999999999999
10
126.59999999999998
20
-35.075000000000003
42
0.41421356237309243
10
127.10000000000001
20
-35.575000000000031
10
140.09999999999997
20
-35.575000000000003
42
0.41421356237309243
10
140.59999999999999
20
-35.075000000000003
10
140.59999999999999
20
-22.074999999999999
42
0.41421356237309503
0
LWPOLYLINE
5
123
100
AcDbEntity
8
0
100
AcDbPolyline
90
8
70
1
43
0.0
10
98.02500000000002
20
-16.024999999999999
42
0.41421356237299228
10
98.524999999999991
20
-16.525000000000002
10
111.52500000000001
20
-16.52499999999997
42
0.41421356237311585
10
112.02500000000001
20
-16.024999999999999
10
112.02500000000001
20
-3.0249999999999999
42
0.41421356237309404
10
111.52500000000001
20
-2.5249999999999946
10
98.524999999999991
20
-2.5250000000000368
42
0.41421356237317342
10
98.02500000000002
20
-3.0249999999999999
0
LINE
5
124
100
AcDbEntity
8
0
100
AcDbLine
10
140.67500001694475
20
6.4750000117346644
30
-2.2490833367371759e-15
11
138.1250000117347
21
6.4750000416580589
31
-1.9367984008072616e-15
0
LWPOLYLINE
5
125
100
AcDbEntity
8
0
100
AcDbPolyline
90
8
70
1
43
0.0
10
121.55000000000001
20
-22.074999999999999
10
121.54999999999998
20
-35.075000000000003
42
-0.41421356237309764
10
121.04999999999997
20
-35.575000000000017
10
108.05
20
-35.575000000000003
42
-0.41421356237309243
10
107.54999999999998
20
-35.075000000000003
10
107.55000000000001
20
-22.074999999999999
42
-0.41421356237309503
10
108.05
20
-21.57500000000001
10
121.04999999999997
20
-21.574999999999967
42
-0.41421356237308982
0
ARC
5
126
100
AcDbEntity
8
0
100
AcDbCircle
10
136.12500000000003
20
0.4749999999999977
30
-1.9944998058440287e-15
40
1
210
1.2246467991473532e-16
220
-5.0438460700359136e-17
230
1
100
AcDbArc
50
270
51
360
0
LINE
5
127
100
AcDbEntity
8
0
100
AcDbLine
10
137.12500000000003
20
5.4750000416580571
30
-1.8647721801558049e-15
11
137.12500000000003
21
0.47499999999999759
31
-2.1169644857587662e-15
0
ARC
5
128
100
AcDbEntity
8
0
100
AcDbCircle
10
138.12500000000003
20
5.4750000416580571
30
-1.9872368600705385e-15
40
1.0000000000000022
210
1.2246467991473532e-16
220
-5.043846070035913e-17
230
1
100
AcDbArc
50
89.99999932765293
51
180
0
LWPOLYLINE
5
129
100
AcDbEntity
8
0
100
AcDbPolyline
90
8
70
1
43
0.0
10
45.350000000000001
20
-92.224999999999994
10
45.34999999999998
20
-79.22499999999998
42
0.41421356237305862
10
44.849999999999994
20
-78.724999999999994
10
31.849999999999987
20
-78.724999999999952
42
0.414213562373069
10
31.34999999999998
20
-79.22499999999998
10
31.349999999999998
20
-92.224999999999994
42
0.41421356237311585
10
31.849999999999987
20
-92.725000000000023
10
44.849999999999994
20
-92.725000000000023
42
0.41421356237310542
0
LWPOLYLINE
5
130
100
AcDbEntity
8
0
100
AcDbPolyline
90
8
70
1
43
0.0
10
40.874999999999979
20
-3.0249999999999999
42
-0.41421356237308493
10
41.374999999999993
20
-2.5250000000000017
10
54.375
20
-2.5249999999999879
42
-0.41421356237309798
10
54.875000000000007
20
-3.0249999999999999
10
54.874999999999979
20
-16.024999999999999
42
-0.41421356237310153
10
54.375
20
-16.524999999999991
10
41.374999999999993
20
-16.524999999999984
42
-0.41421356237308204
10
40.874999999999986
20
-16.024999999999999
0
LWPOLYLINE
5
131
100
AcDbEntity
8
0
100
AcDbPolyline
90
8
70
1
43
0.0
10
55.162499999999994
20
-92.224999999999994
10
55.162500000000009
20
-79.22499999999998
42
-0.41421356237305862
10
55.662500000000001
20
-78.724999999999994
10
68.662499999999966
20
-78.72499999999998
42
-0.41421356237309503
10
69.16249999999998
20
-79.22499999999998
10
69.162500000000037
20
-92.224999999999994
42
-0.41421356237312623
10
68.662499999999966
20
-92.725000000000051
10
55.662500000000001
20
-92.725000000000023
42
-0.41421356237314705
0
LWPOLYLINE
5
132
100
AcDbEntity
8
0
100
AcDbPolyline
90
8
70
1
43
0.0
10
50.899999999999999
20
-35.575000000000017
10
63.900000000000006
20
-35.574999999999982
42
0.41421356237310025
10
64.399999999999977
20
-35.075000000000003
10
64.400000000000006
20
-22.074999999999999
42
0.41421356237308721
10
63.900000000000006
20
-21.575000000000017
10
50.899999999999999
20
-21.57500000000001
42
0.41421356237312623
10
50.399999999999991
20
-22.074999999999999
10
50.400000000000006
20
-35.075000000000003
42
0.41421356237306639
0
LINE
5
133
100
AcDbEntity
8
0
100
AcDbLine
10
217.87499999031891
20
-100.72499999999998
30
-1.7110359610564391e-14
11
217.87499996084256
21
-98.213100077859238
31
-1.698366324144845e-14
0
LINE
5
134
100
AcDbEntity
8
0
100
AcDbLine
10
225.32500000205368
20
-100.7249999243114
30
-1.8022721473548646e-14
11
225.32500000205368
21
-95.724999999999994
31
-1.7770529173864472e-14
0
LWPOLYLINE
5
135
100
AcDbEntity
8
0
100
AcDbPolyline
90
8
70
1
43
0.0
10
3.2749999999999702
20
-16.525000000000006
42
-0.41421356237307422
10
2.7749999999999986
20
-16.024999999999999
10
2.7749999999999697
20
-3.0249999999999999
42
-0.4142135623730947
10
3.2749999999999702
20
-2.5249999999999999
10
16.274999999999977
20
-2.5249999999999959
42
-0.41421356237309309
10
16.774999999999984
20
-3.0249999999999999
10
16.774999999999984
20
-16.024999999999999
42
-0.41421356237309243
10
16.274999999999977
20
-16.525000000000002
0
LWPOLYLINE
5
136
100
AcDbEntity
8
0
100
AcDbPolyline
90
8
70
1
43
0.0
10
88.975000000000009
20
-91.725000000000023
42
0.41421356237309503
10
89.475000000000023
20
-91.225000000000023
10
89.475000000000023
20
-77.22499999999998
42
0.41421356237313667
10
88.975000000000009
20
-76.72499999999998
10
82.974999999999966
20
-76.724999999999966
42
0.41421356237298057
10
82.474999999999952
20
-77.22499999999998
10
82.474999999999966
20
-91.225000000000023
42
0.4142135623730846
10
82.974999999999994
20
-91.725000000000023
0
LWPOLYLINE
5
137
100
AcDbEntity
8
0
100
AcDbPolyline
90
8
70
1
43
0.0
10
78.974999999999966
20
-3.0249999999999999
10
78.974999999999952
20
-16.024999999999999
42
0.4142135623730781
10
79.47499999999998
20
-16.524999999999991
10
92.474999999999994
20
-16.524999999999959
42
0.41421356237310802
10
92.974999999999994
20
-16.024999999999999
10
92.975000000000009
20
-3.0249999999999999
42
0.4142135623731692
10
92.474999999999994
20
-2.5249999999999915
10
79.47499999999998
20
-2.5250000000000128
42
0.41421356237308332
0
ARC
5
138
100
AcDbEntity
8
0
100
AcDbCircle
10
214.32500000205368
20
-100.72500004165806
30
-1.6675610000405348e-14
40
1.0000000000000142
210
1.2246467991473532e-16
220
-5.0438460700359136e-17
230
1
100
AcDbArc
50
180
51
270.00000067234868
0
LWPOLYLINE
5
139
100
AcDbEntity
8
0
100
AcDbPolyline
90
8
70
1
43
0.0
10
23.418749999999982
20
-54.625
10
4.8187499999999872
20
-54.625000000000014
42
-0.4142135623730846
10
4.3187499999999801
20
-54.125000000000021
10
4.318749999999989
20
-41.125
42
-0.41421356237309503
10
4.8187499999999872
20
-40.625
10
23.418749999999982
20
-40.624999999999972
42
-0.41421356237306384
10
23.918749999999989
20
-41.125
10
23.918749999999953
20
-54.125000000000021
42
-0.41421356237310025
0
LWPOLYLINE
5
140
100
AcDbEntity
8
0
100
AcDbPolyline
90
8
70
1
43
0.0
10
46.137499999999996
20
-73.674999999999983
10
59.137500000000003
20
-73.674999999999983
42
0.41421356237310542
10
59.637499999999974
20
-73.174999999999983
10
59.637499999999982
20
-60.174999999999997
42
0.41421356237310542
10
59.137500000000003
20
-59.675000000000004
10
46.137499999999996
20
-59.674999999999997
42
0.41421356237309503
10
45.637499999999989
20
-60.174999999999997
10
45.637499999999989
20
-73.174999999999983
42
0.41421356237308982
0
LWPOLYLINE
5
141
100
AcDbEntity
8
0
100
AcDbPolyline
90
8
70
1
43
0.0
10
73.424999999999983
20
-16.525000000000006
10
60.424999999999969
20
-16.524999999999991
42
-0.41421356237310542
10
59.924999999999997
20
-16.024999999999999
10
59.924999999999969
20
-3.0249999999999999
42
-0.41421356237309731
10
60.424999999999969
20
-2.5250000000000012
10
73.424999999999983
20
-2.5249999999999928
42
-0.41421356237309503
10
73.924999999999983
20
-3.0249999999999999
10
73.924999999999983
20
-16.024999999999999
42
-0.41421356237309503
0
ARC
5
142
100
AcDbEntity
8
0
100
AcDbCircle
10
69.375000002053582
20
-100.72499995423482
30
1.0756453576450452e-15
40
0.99999999999997868
210
1.2246467991473532e-16
220
-5.0438460700359136e-17
230
1
100
AcDbArc
50
180
51
270.00000067234544
0
LINE
5
143
100
AcDbEntity
8
0
100
AcDbLine
10
214.32500001378838
20
-101.72500004165806
30
-1.6726048462542792e-14
11
216.87500000205364
21
-101.72500001173466
31
-1.0376995245628047e-14
0
ARC
5
144
100
AcDbEntity
8
0
100
AcDbCircle
10
216.87499999031894
20
-100.72500001173466
30
-1.6987894931241538e-14
40
0.99999999999999656
210
1.2246460174579825e-16
220
6.6108996870506016e-15
230
1
100
AcDbArc
50
-89.999999327651295
51
0
0
ARC
5
145
100
AcDbEntity
8
0
100
AcDbCircle
10
66.924999999999983
20
-98.213102631564567
30
1.5023800580804779e-15
40
1.4499999999999957
210
1.2246467991473532e-16
220
-5.0438460700359136e-17
230
1
100
AcDbArc
50
0
51
180
0
LWPOLYLINE
5
146
100
AcDbEntity
8
0
100
AcDbPolyline
90
8
70
1
43
0.0
10
21.82500000000001
20
-3.0249999999999999
42
-0.414213562373069
10
22.324999999999982
20
-2.5250000000000017
10
35.324999999999989
20
-2.5249999999999959
42
-0.41421356237309309
10
35.824999999999996
20
-3.0249999999999999
10
35.825000000000003
20
-16.024999999999999
42
-0.41421356237309243
10
35.324999999999989
20
-16.525000000000006
10
22.324999999999982
20
-16.525000000000006
42
-0.41421356237307294
10
21.82500000000001
20
-16.024999999999999
0
LWPOLYLINE
5
147
100
AcDbEntity
8
0
100
AcDbPolyline
90
8
70
1
43
0.0
10
21.03749999999998
20
-35.57500000000001
10
8.037499999999973
20
-35.575000000000038
42
-0.41421356237307161
10
7.5374999999999659
20
-35.075000000000003
10
7.5374999999999837
20
-22.074999999999999
42
-0.41421356237309243
10
8.037499999999973
20
-21.575000000000017
10
21.03749999999998
20
-21.575000000000006
42
-0.41421356237308721
10
21.537499999999987
20
-22.074999999999999
10
21.537499999999987
20
-35.075000000000003
42
-0.41421356237309503
0
ARC
5
148
100
AcDbEntity
8
0
100
AcDbCircle
10
224.32500000205368
20
-100.7249999243114
30
-1.7900256793633917e-14
40
1.0000000000000144
210
1.2246460174603488e-16
220
6.610899687050484e-15
230
1
100
AcDbArc
50
-89.999999327651295
51
0
0
LINE
5
149
100
AcDbEntity
8
0
100
AcDbLine
10
72.925000002053579
20
-100.7249999243114
30
6.4089574545702794e-16
11
72.925000002053579
21
-95.724999999999994
31
8.9308804514120535e-16
0
LINE
5
150
100
AcDbEntity
8
0
100
AcDbLine
10
60.925000002053551
20
-95.725000000000037
30
2.3626642041180279e-15
11
60.925000002053551
21
-100.72500004165806
31
2.1104718985150705e-15
0
LINE
5
151
100
AcDbEntity
8
0
100
AcDbLine
10
68.374999999999986
20
-98.213102631564567
30
1.3248062722041115e-15
11
68.375000002053596
21
-100.72499995423482
31
1.1981100375597787e-15
0
ARC
5
152
100
AcDbEntity
8
0
100
AcDbCircle
10
221.7750000014689
20
-100.72499995423482
30
-1.7587971861289014e-14
40
0.99999999999997868
210
4.8409125345717498e-15
220
-5.0438457941204734e-17
230
1
100
AcDbArc
50
180
51
270.00000067234544
0
LINE
5
153
100
AcDbEntity
8
0
100
AcDbLine
10
69.375000013788224
20
-101.7249999542348
30
1.0252068955076088e-15
11
71.925000013788249
21
-101.72499992431142
31
7.3742601109852518e-15
0
LINE
5
154
100
AcDbEntity
8
0
100
AcDbLine
10
61.925000013788214
20
-101.72500004165806
30
1.9375687564628927e-15
11
64.475000002053591
21
-101.72500001173466
31
8.2866219733776241e-15
0
LINE
5
155
100
AcDbEntity
8
0
100
AcDbLine
10
221.77500001320354
20
-101.72499995423479
30
-1.7638410323426449e-14
11
224.32500001378838
21
-101.72499992431142
31
-1.1289357108020425e-14
0
ARC
5
156
100
AcDbEntity
8
0
100
AcDbCircle
10
64.474999990318906
20
-100.72500001173469
30
1.6757222877641291e-15
40
0.99999999999996092
210
1.2246460174609405e-16
220
6.610899687050839e-15
230
1
100
AcDbArc
50
-89.99999932765212
51
0
0
ARC
5
157
100
AcDbEntity
8
0
100
AcDbCircle
10
71.925000002053565
20
-100.7249999243114
30
7.6336042537176151e-16
40
1.0000000000000144
210
1.2246460174621237e-16
220
6.610899687050484e-15
230
1
100
AcDbArc
50
-89.99999932765212
51
0
0
LINE
5
158
100
AcDbEntity
8
0
100
AcDbLine
10
39.799999999999969
20
5.4749999542348071
30
1.0054102788136327e-14
11
39.79999998261448
21
3.1381026849572891
31
1.6042459924626564e-14
0
LWPOLYLINE
5
159
100
AcDbEntity
8
0
100
AcDbPolyline
90
8
70
1
43
0.0
10
193.77500000000003
20
-16.525000000000077
42
-0.41421356237303131
10
193.27500000000009
20
-16.024999999999999
10
193.27500000000009
20
-3.0249999999999999
42
-0.41421356237304335
10
193.77500000000003
20
-2.5249999999999844
10
206.77500000000003
20
-2.5249999999999719
42
-0.41421356237298251
10
207.27500000000003
20
-3.0249999999999999
10
207.27499999999998
20
-16.024999999999999
42
-0.41421356237301959
10
206.77500000000003
20
-16.525000000000048
0
LWPOLYLINE
5
160
100
AcDbEntity
8
0
100
AcDbPolyline
90
8
70
1
43
0.0
10
217.08750000000006
20
-92.224999999999994
10
217.08750000000006
20
-79.22499999999998
42
-0.41421356237311585
10
217.58749999999998
20
-78.725000000000023
10
230.58750000000001
20
-78.725000000000023
42
-0.41421356237290252
10
231.08750000000009
20
-79.22499999999998
10
231.08750000000009
20
-92.224999999999994
42
-0.41421356237286611
10
230.58750000000001
20
-92.725000000000051
10
217.58749999999998
20
-92.725000000000023
42
-0.41421356237310542
0
LINE
5
161
100
AcDbEntity
8
0
100
AcDbLine
10
65.474999990318921
20
-100.72500000000004
30
1.55325760844127e-15
11
65.474999960842624
21
-98.213102648579863
31
1.6799538478940136e-15
0
LINE
5
162
100
AcDbEntity
8
0
100
AcDbLine
10
220.77500003915961
20
-98.213102631564567
30
-1.7338810951597222e-14
11
220.77500000146892
21
-100.72499995481957
31
-1.2747059326746858e-14
0
LWPOLYLINE
5
163
100
AcDbEntity
8
0
100
AcDbPolyline
90
8
70
1
43
0.0
10
240.90000000000001
20
-79.22499999999998
42
-0.41421356237327195
10
241.40000000000009
20
-78.725000000000023
10
254.40000000000003
20
-78.724999999999923
42
-0.4142135623730222
10
254.90000000000003
20
-79.22499999999998
10
254.90000000000003
20
-92.224999999999994
42
-0.41421356237299095
10
254.40000000000003
20
-92.72500000000008
10
241.40000000000009
20
-92.724999999999966
42
-0.41421356237315748
10
240.90000000000001
20
-92.224999999999994
0
ARC
5
164
100
AcDbEntity
8
0
100
AcDbCircle
10
1.7749999999999844
20
-1.5250000000000019
30
1.4357753019299942e-14
40
1
210
1.2246467991473532e-16
220
-5.0438460700359136e-17
230
1
100
AcDbArc
50
90
51
180
0
LINE
5
165
100
AcDbEntity
8
0
100
AcDbLine
10
240.90000000000001
20
-0.52500000000000235
30
-1.4876175104610781e-14
11
150.125
21
-0.52499999999999858
31
-3.7594437853506813e-15
0
ARC
5
166
100
AcDbEntity
8
0
100
AcDbCircle
10
33.350000000000009
20
5.4750000416580571
30
1.0843999977995858e-14
40
1.0000000000000011
210
1.2246467991473532e-16
220
-5.0438460700359124e-17
230
1
100
AcDbArc
50
89.999999327654137
51
180
0
ARC
5
167
100
AcDbEntity
8
0
100
AcDbCircle
10
61.925000002053565
20
-100.72500004165806
30
1.9880072186003291e-15
40
1.0000000000000142
210
1.2246467991473532e-16
220
-5.0438460700359136e-17
230
1
100
AcDbArc
50
180
51
270.00000067234589
0
LINE
5
168
100
AcDbEntity
8
0
100
AcDbLine
10
43.350000011734657
20
6.4749999243114145
30
9.669791632192998e-15
11
40.800000011734667
21
6.474999954234808
31
9.9820765674848627e-15
0
LINE
5
169
100
AcDbEntity
8
0
100
AcDbLine
10
213.32500000205371
20
-95.725000000000037
30
-1.6300953014887654e-14
11
213.32500000205368
21
-100.72500004165806
31
-1.6553145320490613e-14
0
LWPOLYLINE
5
170
100
AcDbEntity
8
0
100
AcDbPolyline
90
4
70
1
43
0.0
10
5.0374999997217884
20
-35.074983327749635
10
5.0374999999987935
20
-22.074999999999875
42
0.99999999999999989
10
4.0374999999987793
20
-22.074999999999999
10
4.0374999999999863
20
-35.075000007503135
42
1.0000166798925223
0
LWPOLYLINE
5
171
100
AcDbEntity
8
0
100
AcDbPolyline
90
8
70
1
43
0.0
10
203.27500000000009
20
-91.725000000000023
10
197.27499999999998
20
-91.725000000000051
42
-0.41421356237310542
10
196.77500000000006
20
-91.225000000000023
10
196.77500000000006
20
-77.22499999999998
42
-0.41421356237309503
10
197.27499999999998
20
-76.72499999999998
10
203.27500000000009
20
-76.725000000000023
42
-0.41421356237312623
10
203.77500000000003
20
-77.22499999999998
10
203.77500000000003
20
-91.225000000000023
42
-0.41421356237319906
0
LWPOLYLINE
5
172
100
AcDbEntity
8
0
100
AcDbPolyline
90
8
70
1
43
0.0
10
31.349999999999984
20
-22.074999999999999
42
-0.41421356237308721
10
31.849999999999987
20
-21.57500000000001
10
44.849999999999994
20
-21.57500000000001
42
-0.4142135623730846
10
45.350000000000001
20
-22.074999999999999
10
45.350000000000001
20
-35.075000000000003
42
-0.41421356237309503
10
44.849999999999994
20
-35.57500000000001
10
31.849999999999987
20
-35.57500000000001
42
-0.41421356237309503
10
31.34999999999998
20
-35.075000000000003
0
LWPOLYLINE
5
173
100
AcDbEntity
8
0
100
AcDbPolyline
90
8
70
1
43
0.0
10
168.67500000000001
20
-16.524999999999984
10
155.67500000000001
20
-16.525000000000031
42
-0.41421356237298446
10
155.17500000000001
20
-16.024999999999999
10
155.17500000000001
20
-3.0249999999999999
42
-0.41421356237305273
10
155.67500000000001
20
-2.5249999999999946
10
168.67500000000001
20
-2.5250000000000377
42
-0.41421356237298546
10
169.17499999999993
20
-3.0249999999999999
10
169.17500000000001
20
-16.024999999999999
42
-0.41421356237291812
0
LWPOLYLINE
5
174
100
AcDbEntity
8
0
100
AcDbPolyline
90
8
70
1
43
0.0
10
187.72499999999994
20
-16.525000000000027
42
0.41421356237323032
10
188.22499999999997
20
-16.024999999999999
10
188.22499999999997
20
-3.0249999999999999
42
0.41421356237324169
10
187.72499999999997
20
-2.5249999999999573
10
174.72500000000002
20
-2.5249999999999591
42
0.41421356237294837
10
174.22500000000002
20
-3.0249999999999999
10
174.22500000000002
20
-16.024999999999999
42
0.41421356237292595
10
174.72500000000002
20
-16.525000000000006
0
LINE
5
175
100
AcDbEntity
8
0
100
AcDbLine
10
136.12500000000003
20
-0.52500000000000235
30
-2.0449382665443853e-15
11
45.350000000000001
21
-0.52499999999999858
31
9.0717930527157137e-15
0
LINE
5
176
100
AcDbEntity
8
0
100
AcDbLine
10
73.925000002053565
20
-94.724999999999994
30
8.2106182592682838e-16
11
212.32500000205368
21
-94.725000000000023
31
-1.6128049874272555e-14
0
ARC
5
177
100
AcDbEntity
8
0
100
AcDbCircle
10
40.799999999999983
20
5.4749999542348071
30
9.9316381082215905e-15
40
1.0000000000000011
210
1.2246467991473532e-16
220
-5.0438460700359136e-17
230
1
100
AcDbArc
50
89.99999932765212
51
180
0
LINE
5
178
100
AcDbEntity
8
0
100
AcDbLine
10
35.900000016944738
20
6.4750000117346609
30
1.0582153501329224e-14
11
33.350000011734657
21
6.475000041658058
31
1.0894438437259135e-14
0
LWPOLYLINE
5
179
100
AcDbEntity
8
0
100
AcDbPolyline
90
8
70
1
43
0.0
10
197.25
20
-21.575000000000006
42
-0.41421356237312884
10
197.75000000000003
20
-22.074999999999999
10
197.75
20
-35.075000000000003
42
-0.41421356237297274
10
197.25
20
-35.574999999999989
10
184.24999999999997
20
-35.575000000000031
42
-0.41421356237312623
10
183.75
20
-35.075000000000003
10
183.75
20
-22.074999999999999
42
-0.41421356237323032
10
184.25
20
-21.574999999999992
0
ARC
5
180
100
AcDbEntity
8
0
100
AcDbCircle
10
38.350000000000009
20
3.1381026849572891
30
1.6220033708373815e-14
40
1.4499999826145071
210
1.2246467991473532e-16
220
-5.0438460700359136e-17
230
1
100
AcDbArc
50
-180
51
0
0
ARC
5
181
100
AcDbEntity
8
0
100
AcDbCircle
10
219.32499999999999
20
-98.213102631564567
30
-1.7161237160925183e-14
40
1.4500000391596402
210
1.2246467991473532e-16
220
-5.0438460700359136e-17
230
1
100
AcDbArc
50
0
51
179.99989909565716
0
ARC
5
182
100
AcDbEntity
8
0
100
AcDbCircle
10
31.34999999999998
20
0.4749999999999977
30
1.0836737032222366e-14
40
1.0000000000000004
210
1.2246467991473532e-16
220
-5.0438460700359136e-17
230
1
100
AcDbArc
50
270
51
360
0
LWPOLYLINE
5
183
100
AcDbEntity
8
0
100
AcDbPolyline
90
8
70
1
43
0.0
10
269.97500000000002
20
-59.675000000000026
42
0.41421356237299095
10
269.47500000000008
20
-60.174999999999997
10
269.47500000000002
20
-73.174999999999983
42
0.41421356237285051
10
269.97500000000002
20
-73.675000000000068
10
282.97500000000008
20
-73.675000000000082
42
0.41421356237316265
10
283.47500000000002
20
-73.174999999999983
10
283.47500000000002
20
-60.174999999999997
42
0.41421356237314705
10
282.97500000000002
20
-59.674999999999983
0
LWPOLYLINE
5
184
100
AcDbEntity
8
0
100
AcDbPolyline
90
8
70
1
43
0.0
10
102.5
20
-35.075000000000003
42
-0.41421356237309243
10
102
20
-35.57500000000001
10
88.999999999999986
20
-35.575000000000017
42
-0.41421356237311846
10
88.500000000000014
20
-35.075000000000003
10
88.499999999999972
20
-22.074999999999999
42
-0.414213562373004
10
88.999999999999986
20
-21.575000000000017
10
102
20
-21.575000000000028
42
-0.41421356237311585
10
102.5
20
-22.074999999999999
0
LWPOLYLINE
5
185
100
AcDbEntity
8
0
100
AcDbPolyline
90
8
70
1
43
0.0
10
164.69999999999999
20
-22.074999999999999
10
164.69999999999999
20
-35.075000000000003
42
0.41421356237307422
10
165.20000000000005
20
-35.57500000000001
10
178.19999999999993
20
-35.575000000000031
42
0.41421356237314705
10
178.69999999999999
20
-35.075000000000003
10
178.69999999999999
20
-22.074999999999999
42
0.41421356237317569
10
178.20000000000005
20
-21.574999999999992
10
165.20000000000005
20
-21.574999999999992
42
0.41421356237307422
0
ARC
5
186
100
AcDbEntity
8
0
100
AcDbCircle
10
145.57500000000005
20
5.4749999542348071
30
-2.89959872984481e-15
40
1.0000000000000011
210
1.2246467991473532e-16
220
-5.043846070035913e-17
230
1
100
AcDbArc
50
89.99999932765293
51
180
0
LINE
5
187
100
AcDbEntity
8
0
100
AcDbLine
10
149.125
20
0.47499999999999792
30
-3.5865406447355888e-15
11
149.125
21
5.4749999243114136
31
-3.3343483450514074e-15
0
LINE
5
188
100
AcDbEntity
8
0
100
AcDbLine
10
148.1250000117347
20
6.4749999243114145
30
-3.161445205873395e-15
11
145.57500001173472
21
6.474999954234808
31
-2.8491602705815351e-15
0
LINE
5
189
100
AcDbEntity
8
0
100
AcDbLine
10
141.67500001738551
20
3.1381026849572891
30
3.5663706540546775e-15
11
141.67500000521014
21
5.4750000169447501
31
3.6842401597859561e-15
0
ARC
5
190
100
AcDbEntity
8
0
100
AcDbCircle
10
148.125
20
5.4749999243114136
30
-3.2118836651366699e-15
40
0.99999999999999645
210
1.2246467991473532e-16
220
-5.0438460700359136e-17
230
1
100
AcDbArc
50
0
51
89.999999327651295
0
ARC
5
191
100
AcDbEntity
8
0
100
AcDbCircle
10
150.125
20
0.47499999999999792
30
-3.7090053246503224e-15
40
0.99999999999999645
210
1.2246467991473532e-16
220
-5.0438460700359136e-17
230
1
100
AcDbArc
50
180
51
270
0
ARC
5
192
100
AcDbEntity
8
0
100
AcDbCircle
10
143.125
20
3.1381026849572891
30
3.3887968703074269e-15
40
1.4499999826144716
210
1.2246467991473532e-16
220
-5.0438460700359136e-17
230
1
100
AcDbArc
50
-180
51
0
0
ARC
5
193
100
AcDbEntity
8
0
100
AcDbCircle
10
140.67500000521014
20
5.4750000117346644
30
-2.2995217960004567e-15
40
0.99999999999999645
210
1.2246467991473532e-16
220
-5.0438460700359136e-17
230
1
100
AcDbArc
50
0
51
89.999999327656184
0
LINE
5
194
100
AcDbEntity
8
0
100
AcDbLine
10
144.57500000000005
20
5.4749999542348071
30
-2.7771340499300764e-15
11
144.57500000000005
21
3.1381026849572891
31
3.2112230844310565e-15
0
LWPOLYLINE
5
195
100
AcDbEntity
8
0
100
AcDbPolyline
90
8
70
1
43
0.0
10
244.87500000000009
20
-16.525000000000038
10
231.875
20
-16.525000000000023
42
-0.41421356237295848
10
231.37500000000011
20
-16.024999999999999
10
231.37500000000011
20
-3.0249999999999999
42
-0.4142135623730443
10
231.875
20
-2.5249999999999866
10
244.87500000000009
20
-2.5249999999999884
42
-0.41421356237301438
10
245.375
20
-3.0249999999999999
10
245.375
20
-16.024999999999999
42
-0.41421356237286738
0
LINE
5
196
100
AcDbEntity
8
0
100
AcDbLine
10
226.32500000205368
20
-94.724999999999994
30
-1.784255539307885e-14
11
284.47500000000002
21
-94.725000000000023
31
-2.496387652986921e-14
0
ARC
5
197
100
AcDbEntity
8
0
100
AcDbCircle
10
43.350000000000009
20
5.4749999243114136
30
9.6193531729297212e-15
40
0.99999999999997868
210
1.2246467991473532e-16
220
-5.0438460700359136e-17
230
1
100
AcDbArc
50
0
51
89.999999327654137
0
ARC
5
198
100
AcDbEntity
8
0
100
AcDbCircle
10
284.47500000000002
20
-93.725000000000009
30
-2.4913438069168849e-14
40
1.0000000000000142
210
1.2246467991473532e-16
220
-5.0438460700359136e-17
230
1
100
AcDbArc
50
-90
51
0
0
LWPOLYLINE
5
199
100
AcDbEntity
8
0
100
AcDbPolyline
90
8
70
1
43
0.0
10
202.80000000000001
20
-22.074999999999999
10
202.80000000000001
20
-35.075000000000003
42
0.41421356237307422
10
203.30000000000007
20
-35.57500000000001
10
216.30000000000001
20
-35.57500000000006
42
0.4142135623730222
10
216.80000000000001
20
-35.075000000000003
10
216.80000000000001
20
-22.074999999999999
42
0.41421356237304818
10
216.30000000000001
20
-21.574999999999967
10
203.30000000000007
20
-21.574999999999992
42
0.41421356237307422
0
LWPOLYLINE
5
200
100
AcDbEntity
8
0
100
AcDbPolyline
90
8
70
1
43
0.0
10
250.92500000000001
20
-16.525000000000006
10
263.92500000000001
20
-16.525000000000013
42
0.41421356237307683
10
264.42500000000007
20
-16.024999999999999
10
264.42500000000007
20
-3.0249999999999999
42
0.41421356237307322
10
263.92500000000001
20
-2.5249999999999946
10
250.92500000000001
20
-2.5249999999999591
42
0.41421356237294837
10
250.42500000000001
20
-3.0249999999999999
10
250.42500000000001
20
-16.024999999999999
42
0.41421356237292595
0
LINE
5
201
100
AcDbEntity
8
0
100
AcDbLine
10
36.900000017385501
20
3.1381026849572891
30
1.6397607492121075e-14
11
36.900000005210067
21
5.4750000169447457
31
1.651547699785236e-14
0
LINE
5
202
100
AcDbEntity
8
0
100
AcDbLine
10
284.47500000000002
20
-0.52499999999998437
30
-2.0212573531895373e-14
11
254.90000000000006
21
-0.52500000000000213
31
-1.6590680623417083e-14
0
LINE
5
203
100
AcDbEntity
8
0
100
AcDbLine
10
32.349999999999994
20
5.4750000416580571
30
1.096646465791059e-14
11
32.349999999999994
21
0.47499999999999759
31
1.071427235230763e-14
0
LINE
5
204
100
AcDbEntity
8
0
100
AcDbLine
10
249.34999999999999
20
5.4749999542348071
30
-1.5608370887996464e-14
11
249.34999998261449
21
3.1381026849572891
31
-9.6200137515062226e-15
0
ARC
5
205
100
AcDbEntity
8
0
100
AcDbCircle
10
35.900000005210089
20
5.4750000117346644
30
1.0531715042065942e-14
40
0.99999999999997868
210
1.2246467991473532e-16
220
-5.0438460700359136e-17
230
1
100
AcDbArc
50
0
51
89.999999327654137
0
LINE
5
206
100
AcDbEntity
8
0
100
AcDbLine
10
44.349999999999987
20
0.47499999999999787
30
9.2446961933308062e-15
11
44.349999999999987
21
5.4749999243114136
31
9.4968884930149892e-15
0
LWPOLYLINE
5
207
100
AcDbEntity
8
0
100
AcDbPolyline
90
8
70
1
43
0.0
10
222.34999999999999
20
-21.57500000000001
10
235.35000000000002
20
-21.574999999999974
42
-0.4142135623732095
10
235.85000000000002
20
-22.074999999999999
10
235.85000000000002
20
-35.075000000000003
42
-0.41421356237314705
10
235.34999999999999
20
-35.575000000000031
10
222.34999999999999
20
-35.575000000000024
42
-0.41421356237297796
10
221.84999999999999
20
-35.075000000000003
10
221.84999999999999
20
-22.074999999999999
42
-0.41421356237312884
0
LINE
5
208
100
AcDbEntity
8
0
100
AcDbLine
10
31.34999999999998
20
-0.5250000000000028
30
1.0786298571522006e-14
11
1.7749999999999844
21
-0.52500000000000191
31
1.4408191480000305e-14
0
LWPOLYLINE
5
209
100
AcDbEntity
8
0
100
AcDbPolyline
90
8
70
1
43
0.0
10
269.47500000000002
20
-16.024999999999999
10
269.47500000000002
20
-3.0249999999999999
42
-0.41421356237285928
10
269.97500000000002
20
-2.5249999999999613
10
282.97500000000002
20
-2.5249999999999284
42
-0.41421356237317436
10
283.47500000000002
20
-3.0249999999999999
10
283.47500000000002
20
-16.024999999999999
42
-0.41421356237327583
10
282.97500000000002
20
-16.525000000000006
10
269.97500000000002
20
-16.525000000000016
42
-0.41421356237301699
0
LINE
5
210
100
AcDbEntity
8
0
100
AcDbLine
10
245.45000001694473
20
6.4750000117347142
30
-1.5080320174803558e-14
11
242.90000001173468
21
6.475000041658058
31
-1.4768035238873652e-14
0
LWPOLYLINE
5
211
100
AcDbEntity
8
0
100
AcDbPolyline
90
8
70
1
43
0.0
10
265.21250000000003
20
-35.57500000000001
42
-0.4142135623732407
10
264.71249999999998
20
-35.075000000000003
10
264.71249999999998
20
-22.074999999999999
42
-0.41421356237324591
10
265.21249999999998
20
-21.575000000000024
10
278.21249999999998
20
-21.574999999999989
42
-0.41421356237309764
10
278.71249999999992
20
-22.074999999999999
10
278.71250000000003
20
-35.075000000000003
42
-0.41421356237305079
10
278.21249999999998
20
-35.575000000000045
0
LINE
5
212
100
AcDbEntity
8
0
100
AcDbLine
10
252.9000000117347
20
6.4749999243113923
30
-1.5992682043939795e-14
11
250.35000001173466
21
6.4749999542348071
31
-1.568039710864792e-14
0
ARC
5
213
100
AcDbEntity
8
0
100
AcDbCircle
10
242.90000000000003
20
5.4750000416580571
30
-1.4818473698136932e-14
40
1.0000000000000011
210
1.2246467991473532e-16
220
-5.0438460700359124e-17
230
1
100
AcDbArc
50
89.999999327654564
51
180
0
LWPOLYLINE
5
214
100
AcDbEntity
8
0
100
AcDbPolyline
90
4
70
1
43
0.0
10
281.21249999999998
20
-22.07500000000017
10
281.21250000000111
20
-35.075000007503249
42
1.0000166798925223
10
282.21249999972292
20
-35.074983327749784
10
282.21249999999998
20
-22.074999999999992
42
0.99999999999999989
0
LWPOLYLINE
5
215
100
AcDbEntity
8
0
100
AcDbPolyline
90
8
70
1
43
0.0
10
212.82499999999999
20
-16.525000000000027
10
225.82499999999999
20
-16.525000000000045
42
0.41421356237311713
10
226.32499999999999
20
-16.024999999999999
10
226.32499999999999
20
-3.0249999999999999
42
0.41421356237325924
10
225.82499999999999
20
-2.5250000000000088
10
212.82499999999999
20
-2.5250000000000266
42
0.41421356237301277
10
212.3250000000001
20
-3.0249999999999999
10
212.32500000000005
20
-16.024999999999999
42
0.41421356237297796
0
LWPOLYLINE
5
216
100
AcDbEntity
8
0
100
AcDbPolyline
90
8
70
1
43
0.0
10
241.40000000000009
20
-21.575000000000038
10
254.40000000000003
20
-21.574999999999957
42
-0.4142135623730534
10
254.90000000000003
20
-22.074999999999999
10
254.89999999999998
20
-35.075000000000003
42
-0.41421356237300916
10
254.40000000000003
20
-35.575000000000074
10
241.40000000000009
20
-35.575000000000017
42
-0.41421356237307683
10
240.90000000000003
20
-35.075000000000003
10
240.90000000000001
20
-22.074999999999999
42
-0.41421356237319651
0
ARC
5
217
100
AcDbEntity
8
0
100
AcDbCircle
10
284.47500000000002
20
-1.5249999999999986
30
-2.0263011992595733e-14
40
1.0000000000000142
210
1.2246467991473532e-16
220
-5.0438460700359136e-17
230
1
100
AcDbArc
50
0
51
90
0
LINE
5
218
100
AcDbEntity
8
0
100
AcDbLine
10
253.90000000000009
20
0.4749999999999977
30
-1.6417777482801987e-14
11
253.90000000000009
21
5.4749999243114136
31
-1.616558518311781e-14
0
ARC
5
219
100
AcDbEntity
8
0
100
AcDbCircle
10
240.90000000000001
20
0.4749999999999977
30
-1.4825736643910421e-14
40
1
210
1.2246467991473532e-16
220
-5.0438460700359136e-17
230
1
100
AcDbArc
50
270
51
360
0
ARC
5
220
100
AcDbEntity
8
0
100
AcDbCircle
10
247.89999999999998
20
3.1381026849572891
30
-9.4424399677589673e-15
40
1.4499999826145071
210
1.2246467991473532e-16
220
-5.0438460700359136e-17
230
1
100
AcDbArc
50
-180
51
0
0
LINE
5
221
100
AcDbEntity
8
0
100
AcDbLine
10
246.45000001738549
20
3.1381026849572891
30
-9.2648661840117104e-15
11
246.45000000521009
21
5.4750000169447386
31
-9.1469966782804319e-15
0
LWPOLYLINE
5
222
100
AcDbEntity
8
0
100
AcDbPolyline
90
8
70
1
43
0.0
10
136.625
20
-78.724999999999994
10
149.625
20
-78.725000000000009
42
-0.41421356237310025
10
150.125
20
-79.225000000000023
10
150.125
20
-92.225000000000037
42
-0.41421356237310542
10
149.62500000000003
20
-92.724999999999966
10
136.625
20
-92.725000000000051
42
-0.41421356237307422
10
136.12500000000003
20
-92.224999999999994
10
136.12500000000003
20
-79.22499999999998
42
-0.41421356237308982
0
LWPOLYLINE
5
223
100
AcDbEntity
8
0
100
AcDbPolyline
90
8
70
1
43
0.0
10
36.619250000000001
20
-75.675000000000011
42
0.414213562373069
10
37.119250000000008
20
-75.174999999999983
10
37.119250000000036
20
-61.17499999999999
42
0.41421356237309503
10
36.619250000000001
20
-60.675000000000026
10
30.619249999999987
20
-60.675000000000018
42
0.41421356237307944
10
30.11924999999998
20
-61.174999999999997
10
30.11924999999998
20
-75.174999999999983
42
0.41421356237309503
10
30.619249999999987
20
-75.674999999999983
0
LWPOLYLINE
5
224
100
AcDbEntity
8
0
100
AcDbPolyline
90
8
70
1
43
0.0
10
12.743249999999975
20
-60.674999999999997
10
6.7432499999999962
20
-60.675000000000011
42
0.41421356237316787
10
6.2432499999999891
20
-61.174999999999997
10
6.2432499999999891
20
-75.174999999999983
42
0.41421356237313667
10
6.7432499999999962
20
-75.674999999999983
10
12.743249999999975
20
-75.674999999999983
42
0.41421356237308982
10
13.243249999999982
20
-75.174999999999983
10
13.243249999999973
20
-61.174999999999997
42
0.41421356237309503
0
ARC
5
225
100
AcDbEntity
8
0
100
AcDbCircle
10
212.32500000205368
20
-95.725000000000037
30
-1.6178488334972915e-14
40
1.0000000000000142
210
1.2246467991473532e-16
220
-5.0438460700359136e-17
230
1
100
AcDbArc
50
0
51
90
0
LWPOLYLINE
5
226
100
AcDbEntity
8
0
100
AcDbPolyline
90
8
70
1
43
0.0
10
36.112499999999983
20
-54.125000000000021
10
36.112500000000018
20
-41.124999999999986
42
-0.41421356237306384
10
36.61249999999999
20
-40.625
10
49.612499999999997
20
-40.625000000000028
42
-0.41421356237309503
10
50.112499999999969
20
-41.125
10
50.112499999999983
20
-54.125000000000021
42
-0.41421356237308982
10
49.612499999999997
20
-54.625
10
36.61249999999999
20
-54.625
42
-0.41421356237312101
0
LWPOLYLINE
5
227
100
AcDbEntity
8
0
100
AcDbPolyline
90
8
70
1
43
0.0
10
15.181249999999977
20
-59.675000000000011
10
28.181249999999984
20
-59.674999999999997
42
-0.41421356237309503
10
28.681249999999991
20
-60.174999999999997
10
28.681249999999999
20
-73.174999999999983
42
-0.4142135623730846
10
28.181249999999984
20
-73.674999999999983
10
15.181249999999977
20
-73.674999999999969
42
-0.41421356237314183
10
14.681250000000006
20
-73.174999999999983
10
14.681249999999997
20
-60.174999999999997
42
-0.41421356237310025
0
LWPOLYLINE
5
228
100
AcDbEntity
8
0
100
AcDbPolyline
90
8
70
1
43
0.0
10
122.33750000000001
20
-73.675000000000054
10
135.33750000000003
20
-73.674999999999983
42
0.41421356237301699
10
135.83750000000001
20
-73.174999999999983
10
135.83750000000003
20
-60.174999999999997
42
0.414213562373069
10
135.33749999999998
20
-59.675000000000004
10
122.33750000000001
20
-59.675000000000018
42
0.41421356237316265
10
121.83750000000001
20
-60.174999999999997
10
121.83749999999998
20
-73.174999999999983
42
0.41421356237312101
0
LWPOLYLINE
5
229
100
AcDbEntity
8
0
100
AcDbPolyline
90
8
70
1
43
0.0
10
141.38749999999999
20
-73.675000000000054
42
-0.41421356237311063
10
140.88749999999999
20
-73.174999999999983
10
140.88749999999999
20
-60.174999999999997
42
-0.41421356237315227
10
141.38749999999999
20
-59.675000000000004
10
154.38749999999999
20
-59.675000000000004
42
-0.41421356237308982
10
154.88750000000005
20
-60.174999999999997
10
154.88750000000005
20
-73.174999999999983
42
-0.41421356237308982
10
154.38749999999999
20
-73.674999999999983
0
ARC
5
230
100
AcDbEntity
8
0
100
AcDbCircle
10
73.925000002053565
20
-95.724999999999994
30
7.7062336522647178e-16
40
0.99999999999999645
210
1.2246467991473532e-16
220
-5.0438460700359136e-17
230
1
100
AcDbArc
50
90
51
180
0
ARC
5
231
100
AcDbEntity
8
0
100
AcDbCircle
10
226.32500000205368
20
-95.724999999999994
30
-1.7892993853779208e-14
40
0.99999999999999645
210
1.2246467991473532e-16
220
-5.0438460700359136e-17
230
1
100
AcDbArc
50
90
51
180
0
ARC
5
232
100
AcDbEntity
8
0
100
AcDbCircle
10
59.925000002053572
20
-95.725000000000037
30
2.4851288840327615e-15
40
0.99999999999997868
210
1.2246467991473532e-16
220
-5.0438460700359136e-17
230
1
100
AcDbArc
50
0
51
90
0
LINE
5
233
100
AcDbEntity
8
0
100
AcDbLine
10
0.77499999999997016
20
-1.5250000000000019
30
1.448021769921468e-14
11
0.77499999999997016
21
-93.725000000000023
31
9.8297916226415722e-15
0
LWPOLYLINE
5
234
100
AcDbEntity
8
0
100
AcDbPolyline
90
8
70
1
43
0.0
10
116.78750000000001
20
-73.174999999999983
42
-0.414213562373069
10
116.28749999999997
20
-73.674999999999983
10
103.28749999999999
20
-73.674999999999969
42
-0.41421356237316265
10
102.78749999999999
20
-73.174999999999983
10
102.78749999999999
20
-60.174999999999997
42
-0.41421356237313667
10
103.28749999999999
20
-59.675000000000004
10
116.28750000000004
20
-59.675000000000004
42
-0.41421356237302737
10
116.78750000000001
20
-60.174999999999997
0
ARC
5
235
100
AcDbEntity
8
0
100
AcDbCircle
10
1.7749999999999844
20
-93.725000000000023
30
9.7073269427268307e-15
40
1.0000000000000142
210
1.2246467991473532e-16
220
-5.0438460700359136e-17
230
1
100
AcDbArc
50
180
51
270
0
ARC
5
236
100
AcDbEntity
8
0
100
AcDbCircle
10
45.350000000000001
20
0.47499999999999792
30
9.1222315134160695e-15
40
1.0000000000000142
210
1.2246467991473532e-16
220
-5.043846070035913e-17
230
1
100
AcDbArc
50
180
51
270
0
LINE
5
237
100
AcDbEntity
8
0
100
AcDbLine
10
1.7749999999999844
20
-94.724999999999994
30
9.6568884820264749e-15
11
59.925000002053572
21
-94.725000000000037
31
2.535567344733122e-15
0
LINE
5
238
100
AcDbEntity
8
0
100
AcDbLine
10
285.47500000000002
20
-93.725000000000009
30
-2.5035902749083581e-14
11
285.47500000000002
21
-1.5249999999999986
31
-2.0385476672510468e-14
0
LWPOLYLINE
5
239
100
AcDbEntity
8
0
100
AcDbPolyline
90
8
70
1
43
0.0
10
112.3125
20
-54.125000000000021
10
112.31250000000003
20
-41.125
42
-0.41421356237309503
10
112.8125
20
-40.625000000000014
10
125.81249999999997
20
-40.624999999999943
42
-0.41421356237302737
10
126.3125
20
-41.125
10
126.31250000000001
20
-54.125000000000021
42
-0.41421356237303258
10
125.81250000000004
20
-54.625000000000021
10
112.8125
20
-54.625000000000014
42
-0.4142135623730846
0
LWPOLYLINE
5
240
100
AcDbEntity
8
0
100
AcDbPolyline
90
8
70
1
43
0.0
10
131.86250000000001
20
-54.625
42
-0.41421356237312101
10
131.36250000000001
20
-54.125000000000021
10
131.36250000000001
20
-41.125
42
-0.41421356237310542
10
131.86250000000001
20
-40.625000000000014
10
144.8625000000001
20
-40.625000000000007
42
-0.4142135623730222
10
145.36250000000001
20
-41.125
10
145.36249999999998
20
-54.125000000000021
42
-0.4142135623730534
10
144.86250000000001
20
-54.625000000000021
0
ARC
5
241
100
AcDbEntity
8
0
100
AcDbCircle
10
252.90000000000006
20
5.4749999243114136
30
-1.6043120503203075e-14
40
1.0000000000000142
210
1.2246467991473532e-16
220
-5.0438460700359136e-17
230
1
100
AcDbArc
50
0
51
89.999999327654564
0
ARC
5
242
100
AcDbEntity
8
0
100
AcDbCircle
10
250.34999999999999
20
5.4749999542348071
30
-1.5730835567911203e-14
40
0.99999999999999978
210
1.2246467991473532e-16
220
-5.0438460700359124e-17
230
1
100
AcDbArc
50
89.99999932765293
51
180
0
ARC
5
243
100
AcDbEntity
8
0
100
AcDbCircle
10
254.90000000000006
20
0.47499999999999792
30
-1.6540242162716722e-14
40
0.99999999999997868
210
1.2246467991473532e-16
220
-5.0438460700359136e-17
230
1
100
AcDbArc
50
180
51
270
0
LINE
5
244
100
AcDbEntity
8
0
100
AcDbLine
10
241.90000000000001
20
5.4750000416580571
30
-1.4696009018222194e-14
11
241.90000000000001
21
0.47499999999999759
31
-1.4948201323825159e-14
0
ARC
5
245
100
AcDbEntity
8
0
100
AcDbCircle
10
245.45000000521009
20
5.4750000117346644
30
-1.5130758634066841e-14
40
1.0000000000000497
210
1.2246467991473532e-16
220
-5.0438460700359136e-17
230
1
100
AcDbArc
50
0
51
89.999999327654564
0
ENDSEC
0
SECTION
2
OBJECTS
0
DICTIONARY
5
C
100
AcDbDictionary
3
ACAD_GROUP
350
D
3
ACAD_MLINESTYLE
350
17
0
DICTIONARY
5
D
100
AcDbDictionary
0
DICTIONARY
5
1A
330
C
100
AcDbDictionary
0
DICTIONARY
5
17
100
AcDbDictionary
0
ENDSEC
0
EOF
