0
SECTION
2
HEADER
9
$INSUNITS
70
4
9
$ACADVER
1
AC1014
9
$HANDSEED
5
FFFF
0
ENDSEC
0
SECTION
2
TABLES
0
TABLE
2
VPORT
5
8
100
AcDbSymbolTable
0
ENDTAB
0
TABLE
2
LTYPE
5
5
100
AcDbSymbolTable
0
LTYPE
5
14
100
AcDbSymbolTableRecord
100
AcDbLinetypeTableRecord
2
BYBLOCK
70
0
0
LTYPE
5
15
100
AcDbSymbolTableRecord
100
AcDbLinetypeTableRecord
2
BYLAYER
70
0
0
ENDTAB
0
TABLE
2
LAYER
5
2
100
AcDbSymbolTable
70
2
0
LAYER
5
50
100
AcDbSymbolTableRecord
100
AcDbLayerTableRecord
2
0
70
0
6
CONTINUOUS
0
ENDTAB
0
TABLE
2
STYLE
5
3
100
AcDbSymbolTable
70
1
0
STYLE
5
11
100
AcDbSymbolTableRecord
100
AcDbTextStyleTableRecord
2
STANDARD
70
0
0
ENDTAB
0
TABLE
2
VIEW
5
6
100
AcDbSymbolTable
70
0
0
ENDTAB
0
TABLE
2
UCS
5
7
100
AcDbSymbolTable
70
0
0
ENDTAB
0
TABLE
2
APPID
5
9
100
AcDbSymbolTable
70
2
0
APPID
5
12
100
AcDbSymbolTableRecord
100
AcDbRegAppTableRecord
2
ACAD
70
0
0
ENDTAB
0
TABLE
2
DIMSTYLE
5
A
100
AcDbSymbolTable
70
1
0
ENDTAB
0
TABLE
2
BLOCK_RECORD
5
1
100
AcDbSymbolTable
70
1
0
BLOCK_RECORD
5
1F
100
AcDbSymbolTableRecord
100
AcDbBlockTableRecord
2
*MODEL_SPACE
0
BLOCK_RECORD
5
1B
100
AcDbSymbolTableRecord
100
AcDbBlockTableRecord
2
*PAPER_SPACE
0
ENDTAB
0
ENDSEC
0
SECTION
2
BLOCKS
0
BLOCK
5
20
100
AcDbEntity
100
AcDbBlockBegin
2
*MODEL_SPACE
0
ENDBLK
5
21
100
AcDbEntity
100
AcDbBlockEnd
0
BLOCK
5
1C
100
AcDbEntity
100
AcDbBlockBegin
2
*PAPER_SPACE
0
ENDBLK
5
1D
100
AcDbEntity
100
AcDbBlockEnd
0
ENDSEC
0
SECTION
2
ENTITIES
0
LWPOLYLINE
5
100
100
AcDbEntity
8
0
100
AcDbPolyline
90
8
70
1
43
0.0
10
150.125
20
-79.225000000000023
10
150.125
20
-92.225000000000037
42
-0.41421356237315748
10
149.62500000000003
20
-92.724999999999966
10
136.625
20
-92.725000000000051
42
-0.41421356237310542
10
136.12500000000006
20
-92.224999999999994
10
136.12500000000006
20
-79.22499999999998
42
-0.41421356237312101
10
136.625
20
-78.724999999999994
10
149.625
20
-78.725000000000009
42
-0.41421356237305862
0
LWPOLYLINE
5
101
100
AcDbEntity
8
0
100
AcDbPolyline
90
8
70
1
43
0.0
10
264.71250000000003
20
-35.075000000000003
10
264.71249999999998
20
-22.074999999999999
42
-0.41421356237329016
10
265.21249999999998
20
-21.575000000000021
10
278.21249999999998
20
-21.574999999999989
42
-0.41421356237309764
10
278.71249999999992
20
-22.074999999999999
10
278.71250000000003
20
-35.075000000000003
42
-0.41421356237305079
10
278.21249999999998
20
-35.575000000000038
10
265.21250000000003
20
-35.575000000000017
42
-0.41421356237314183
0
LWPOLYLINE
5
102
100
AcDbEntity
8
0
100
AcDbPolyline
90
8
70
1
43
0.0
10
225.82499999999999
20
-16.525000000000034
42
0.41421356237311063
10
226.32499999999999
20
-16.024999999999999
10
226.32499999999999
20
-3.0249999999999999
42
0.41421356237325829
10
225.82499999999999
20
-2.5250000000000123
10
212.82499999999999
20
-2.525000000000035
42
0.41421356237300788
10
212.3250000000001
20
-3.0249999999999999
10
212.32500000000005
20
-16.024999999999999
42
0.41421356237297408
10
212.82499999999999
20
-16.525000000000013
0
LINE
5
103
100
AcDbEntity
8
0
100
AcDbLine
10
241.90000000000001
20
5.4750000416580571
30
-1.4696009018222194e-14
11
241.90000000000003
21
0.47499999999999765
31
-1.4825736643910421e-14
0
ARC
5
104
100
AcDbEntity
8
0
100
AcDbCircle
10
250.34999999999999
20
5.4749999542348071
30
-1.5730835567911203e-14
40
0.99999999999999978
210
0
220
-0
230
1
100
AcDbArc
50
89.999999327651295
51
180
0
LWPOLYLINE
5
105
100
AcDbEntity
8
0
100
AcDbPolyline
90
4
70
1
43
0.0
10
281.21249999999998
20
-22.075000000000195
10
281.21250000000111
20
-35.075000007503192
42
1.0000166798925223
10
282.21249999972287
20
-35.074983327749877
10
282.21249999999992
20
-22.074999999999939
42
0.99999999999999989
0
LINE
5
106
100
AcDbEntity
8
0
100
AcDbLine
10
285.47500000000002
20
-93.725000000000023
30
-2.5035902749083581e-14
11
285.47500000000002
21
-1.5249999999999986
31
-2.0385476672510465e-14
0
LWPOLYLINE
5
107
100
AcDbEntity
8
0
100
AcDbPolyline
90
8
70
1
43
0.0
10
269.97500000000002
20
-2.5249999999999559
10
282.97500000000002
20
-2.5249999999999262
42
-0.41421356237317569
10
283.47500000000002
20
-3.0249999999999999
10
283.47500000000002
20
-16.024999999999999
42
-0.41421356237323942
10
282.97500000000002
20
-16.525000000000038
10
269.97500000000002
20
-16.525000000000006
42
-0.41421356237294804
10
269.47500000000002
20
-16.024999999999999
10
269.47500000000002
20
-3.0249999999999999
42
-0.41421356237289048
0
LINE
5
108
100
AcDbEntity
8
0
100
AcDbLine
10
253.90000000000009
20
0.47499999999999815
30
-1.6540242162716722e-14
11
253.90000000000009
21
5.4749999243114136
31
-1.616558518311781e-14
0
ARC
5
109
100
AcDbEntity
8
0
100
AcDbCircle
10
240.90000000000003
20
0.4749999999999977
30
-1.4825736643910421e-14
40
1
210
0
220
0
230
1
100
AcDbArc
50
270
51
360
0
ARC
5
110
100
AcDbEntity
8
0
100
AcDbCircle
10
245.45000000521011
20
5.4750000117346644
30
-1.5130758634066841e-14
40
1.0000000000000497
210
0
220
0
230
1
100
AcDbArc
50
0
51
89.999999327654564
0
ARC
5
111
100
AcDbEntity
8
0
100
AcDbCircle
10
284.47500000000002
20
-1.5249999999999986
30
-2.0263011992595733e-14
40
1.0000000000000142
210
1.2246467991473618e-16
220
0
230
1
100
AcDbArc
50
0
51
90
0
ARC
5
112
100
AcDbEntity
8
0
100
AcDbCircle
10
59.925000002053572
20
-95.725000000000037
30
2.4851288840327611e-15
40
0.99999999999997868
210
0
220
0
230
1
100
AcDbArc
50
0
51
90
0
ARC
5
113
100
AcDbEntity
8
0
100
AcDbCircle
10
1.7749999999999844
20
-93.725000000000023
30
9.7073269427268307e-15
40
1.0000000000000142
210
0
220
0
230
1
100
AcDbArc
50
180
51
270
0
ARC
5
114
100
AcDbEntity
8
0
100
AcDbCircle
10
254.90000000000009
20
0.47499999999999792
30
-1.6540242162716722e-14
40
0.99999999999997868
210
0
220
0
230
1
100
AcDbArc
50
180
51
270
0
LWPOLYLINE
5
115
100
AcDbEntity
8
0
100
AcDbPolyline
90
8
70
1
43
0.0
10
30.119249999999987
20
-75.174999999999983
42
0.41421356237311324
10
30.61924999999999
20
-75.674999999999983
10
36.619250000000001
20
-75.675000000000026
42
0.41421356237306384
10
37.119250000000008
20
-75.174999999999983
10
37.119250000000044
20
-61.174999999999997
42
0.41421356237307422
10
36.619250000000001
20
-60.675000000000026
10
30.61924999999999
20
-60.675000000000026
42
0.41421356237306639
10
30.11924999999998
20
-61.174999999999997
0
LWPOLYLINE
5
116
100
AcDbEntity
8
0
100
AcDbPolyline
90
8
70
1
43
0.0
10
22.324999999999985
20
-16.525000000000006
42
-0.41421356237307683
10
21.82500000000001
20
-16.024999999999999
10
21.82500000000001
20
-3.0249999999999999
42
-0.41421356237307128
10
22.324999999999985
20
-2.5250000000000004
10
35.324999999999989
20
-2.5249999999999968
42
-0.41421356237309276
10
35.825000000000017
20
-3.0249999999999999
10
35.825000000000017
20
-16.024999999999999
42
-0.4142135623730937
10
35.324999999999989
20
-16.525000000000006
0
LINE
5
117
100
AcDbEntity
8
0
100
AcDbLine
10
245.45000001694476
20
6.4750000117347142
30
-1.5130758634066841e-14
11
242.9000000117347
21
6.4750000416580589
31
-1.4818473698136932e-14
0
LINE
5
118
100
AcDbEntity
8
0
100
AcDbLine
10
246.45000001738552
20
3.1381026849572891
30
-9.2648661840117089e-15
11
246.45000000521009
21
5.4750000169447386
31
-9.1469966782804319e-15
0
LINE
5
119
100
AcDbEntity
8
0
100
AcDbLine
10
1.7749999999999841
20
-94.725000000000037
30
9.7073269427268307e-15
11
59.925000002053572
21
-94.725000000000051
31
2.4851288840327611e-15
0
LWPOLYLINE
5
120
100
AcDbEntity
8
0
100
AcDbPolyline
90
8
70
1
43
0.0
10
207.27500000000006
20
-3.0249999999999999
10
207.27500000000006
20
-16.024999999999999
42
-0.41421356237304691
10
206.77500000000009
20
-16.525000000000027
10
193.77500000000003
20
-16.525000000000105
42
-0.41421356237300661
10
193.27500000000009
20
-16.024999999999999
10
193.27500000000009
20
-3.0249999999999999
42
-0.41421356237304818
10
193.77500000000003
20
-2.5249999999999679
10
206.77500000000009
20
-2.5249999999999591
42
-0.4142135623730524
0
LWPOLYLINE
5
121
100
AcDbEntity
8
0
100
AcDbPolyline
90
8
70
1
43
0.0
10
241.40000000000009
20
-92.724999999999994
42
-0.41421356237310542
10
240.90000000000003
20
-92.224999999999994
10
240.90000000000003
20
-79.22499999999998
42
-0.41421356237329793
10
241.40000000000009
20
-78.725000000000023
10
254.40000000000003
20
-78.724999999999909
42
-0.41421356237298579
10
254.90000000000009
20
-79.22499999999998
10
254.90000000000009
20
-92.224999999999994
42
-0.41421356237295975
10
254.40000000000003
20
-92.725000000000094
0
LWPOLYLINE
5
122
100
AcDbEntity
8
0
100
AcDbPolyline
90
8
70
1
43
0.0
10
6.2432499999999926
20
-75.174999999999983
42
0.41421356237314511
10
6.7432499999999962
20
-75.674999999999983
10
12.743249999999975
20
-75.674999999999997
42
0.41421356237311197
10
13.243249999999982
20
-75.174999999999983
10
13.243249999999975
20
-61.174999999999997
42
0.41421356237309631
10
12.743249999999975
20
-60.675000000000018
10
6.7432499999999962
20
-60.675000000000026
42
0.41421356237315488
10
6.2432499999999909
20
-61.174999999999997
0
ARC
5
123
100
AcDbEntity
8
0
100
AcDbCircle
10
226.32500000205368
20
-95.724999999999994
30
-1.7892993853779214e-14
40
0.99999999999999645
210
0
220
-0
230
1
100
AcDbArc
50
90
51
180
0
LWPOLYLINE
5
124
100
AcDbEntity
8
0
100
AcDbPolyline
90
8
70
1
43
0.0
10
28.681249999999995
20
-60.174999999999997
10
28.681249999999995
20
-73.174999999999983
42
-0.41421356237308204
10
28.181249999999984
20
-73.674999999999983
10
15.181249999999975
20
-73.674999999999997
42
-0.41421356237315748
10
14.681250000000006
20
-73.174999999999983
10
14.681249999999997
20
-60.174999999999997
42
-0.41421356237308854
10
15.181249999999975
20
-59.675000000000011
10
28.181249999999984
20
-59.675000000000011
42
-0.4142135623730846
0
ARC
5
125
100
AcDbEntity
8
0
100
AcDbCircle
10
242.90000000000006
20
5.4750000416580571
30
-1.4818473698136932e-14
40
1.0000000000000011
210
0
220
-0
230
1
100
AcDbArc
50
89.999999327654564
51
180
0
LWPOLYLINE
5
126
100
AcDbEntity
8
0
100
AcDbPolyline
90
8
70
1
43
0.0
10
21.537499999999994
20
-35.075000000000003
42
-0.41421356237310025
10
21.03749999999998
20
-35.57500000000001
10
8.037499999999973
20
-35.575000000000038
42
-0.41421356237307555
10
7.5374999999999668
20
-35.075000000000003
10
7.5374999999999837
20
-22.074999999999999
42
-0.41421356237309243
10
8.037499999999973
20
-21.575000000000017
10
21.03749999999998
20
-21.57500000000001
42
-0.41421356237308204
10
21.537499999999991
20
-22.074999999999999
0
LINE
5
127
100
AcDbEntity
8
0
100
AcDbLine
10
252.9000000117347
20
6.4749999243114287
30
-1.6043120503203075e-14
11
250.35000001173469
21
6.4749999542348071
31
-1.5730835567911203e-14
0
ARC
5
128
100
AcDbEntity
8
0
100
AcDbCircle
10
45.350000000000001
20
0.47499999999999792
30
9.1222315134160695e-15
40
1.0000000000000142
210
0
220
0
230
1
100
AcDbArc
50
180
51
270
0
ARC
5
129
100
AcDbEntity
8
0
100
AcDbCircle
10
247.90000000000006
20
3.1381026849572891
30
-9.4424399677589705e-15
40
1.4499999826145071
210
1.2246467991473576e-16
220
0
230
1
100
AcDbArc
50
-180
51
0
0
ARC
5
130
100
AcDbEntity
8
0
100
AcDbCircle
10
73.925000002053565
20
-95.724999999999994
30
7.7062336522647178e-16
40
0.99999999999999645
210
0
220
-0
230
1
100
AcDbArc
50
90
51
180
0
LWPOLYLINE
5
131
100
AcDbEntity
8
0
100
AcDbPolyline
90
8
70
1
43
0.0
10
174.72500000000008
20
-16.525000000000002
10
187.72500000000002
20
-16.525000000000038
42
0.41421356237315354
10
188.22500000000002
20
-16.024999999999999
10
188.22500000000005
20
-3.0249999999999999
42
0.41421356237317603
10
187.72500000000002
20
-2.5249999999999773
10
174.72500000000008
20
-2.5249999999999555
42
0.41421356237299195
10
174.22500000000008
20
-3.0249999999999999
10
174.22500000000011
20
-16.024999999999999
42
0.41421356237291163
0
LWPOLYLINE
5
132
100
AcDbEntity
8
0
100
AcDbPolyline
90
8
70
1
43
0.0
10
196.77500000000009
20
-91.225000000000023
10
196.77500000000009
20
-77.22499999999998
42
-0.4142135623732095
10
197.27500000000006
20
-76.725000000000023
10
203.27500000000009
20
-76.725000000000023
42
-0.41421356237312623
10
203.77500000000003
20
-77.22499999999998
10
203.77500000000003
20
-91.225000000000023
42
-0.41421356237319906
10
203.27500000000009
20
-91.725000000000023
10
197.27500000000006
20
-91.725000000000051
42
-0.41421356237316787
0
LINE
5
133
100
AcDbEntity
8
0
100
AcDbLine
10
240.90000000000003
20
-0.52500000000000235
30
-1.4825736643910421e-14
11
150.125
21
-0.52499999999999858
31
-3.7594437853506813e-15
0
LINE
5
134
100
AcDbEntity
8
0
100
AcDbLine
10
214.32500001378841
20
-101.72500004165806
30
-1.6726048462542792e-14
11
216.87500000205361
21
-101.72500001173466
31
-1.6987894931241538e-14
0
LWPOLYLINE
5
135
100
AcDbEntity
8
0
100
AcDbPolyline
90
4
70
1
43
0.0
10
5.0374999999987935
20
-22.074999999999875
42
0.99999999999999989
10
4.0374999999987793
20
-22.074999999999999
10
4.0374999999999872
20
-35.075000007504784
42
1.0000166798925223
10
5.0374999997217849
20
-35.074983327747972
0
LINE
5
136
100
AcDbEntity
8
0
100
AcDbLine
10
61.925000013788214
20
-101.72500004165806
30
1.9375687564628927e-15
11
64.475000002053577
21
-101.72500001173466
31
1.6757222877641293e-15
0
LWPOLYLINE
5
137
100
AcDbEntity
8
0
100
AcDbPolyline
90
8
70
1
43
0.0
10
244.87500000000011
20
-2.5250000000000057
42
-0.41421356237298351
10
245.375
20
-3.0249999999999999
10
245.375
20
-16.024999999999999
42
-0.41421356237294676
10
244.87500000000011
20
-16.525000000000013
10
231.875
20
-16.52500000000002
42
-0.41421356237295587
10
231.37500000000011
20
-16.024999999999999
10
231.37500000000011
20
-3.0249999999999999
42
-0.41421356237307227
10
231.875
20
-2.5250000000000012
0
LWPOLYLINE
5
138
100
AcDbEntity
8
0
100
AcDbPolyline
90
8
70
1
43
0.0
10
168.67500000000004
20
-16.524999999999974
10
155.67500000000001
20
-16.525000000000031
42
-0.41421356237298318
10
155.17500000000001
20
-16.024999999999999
10
155.17500000000001
20
-3.0249999999999999
42
-0.41421356237308915
10
155.67500000000001
20
-2.5249999999999946
10
168.67500000000004
20
-2.5250000000000417
42
-0.41421356237302481
10
169.1749999999999
20
-3.0249999999999999
10
169.17500000000001
20
-16.024999999999999
42
-0.41421356237293505
0
LWPOLYLINE
5
139
100
AcDbEntity
8
0
100
AcDbPolyline
90
8
70
1
43
0.0
10
230.58750000000003
20
-78.725000000000023
42
-0.41421356237284007
10
231.08750000000009
20
-79.22499999999998
10
231.08750000000009
20
-92.224999999999994
42
-0.41421356237288692
10
230.58750000000003
20
-92.725000000000051
10
217.58750000000006
20
-92.725000000000023
42
-0.41421356237316787
10
217.08750000000009
20
-92.224999999999994
10
217.08750000000009
20
-79.22499999999998
42
-0.41421356237321472
10
217.58750000000006
20
-78.725000000000023
0
LINE
5
140
100
AcDbEntity
8
0
100
AcDbLine
10
0.77499999999997016
20
-1.5250000000000019
30
1.4480217699214683e-14
11
0.77499999999997016
21
-93.725000000000023
31
9.7073269427268307e-15
0
ARC
5
141
100
AcDbEntity
8
0
100
AcDbCircle
10
71.925000002053565
20
-100.7249999243114
30
7.6336042537176151e-16
40
1.0000000000000144
210
0
220
0
230
1
100
AcDbArc
50
-89.99999932765212
51
0
0
LINE
5
142
100
AcDbEntity
8
0
100
AcDbLine
10
221.77500001320362
20
-101.72499995423479
30
-1.7587971861289011e-14
11
224.32500001378841
21
-101.72499992431143
31
-1.1289357108020425e-14
0
ARC
5
143
100
AcDbEntity
8
0
100
AcDbCircle
10
212.32500000205368
20
-95.725000000000037
30
-1.6178488334972915e-14
40
1.0000000000000142
210
0
220
0
230
1
100
AcDbArc
50
0
51
90
0
LINE
5
144
100
AcDbEntity
8
0
100
AcDbLine
10
60.925000002053551
20
-95.725000000000037
30
2.4851288840327611e-15
11
60.925000002053551
21
-100.72500004165806
31
2.1104718985150701e-15
0
LINE
5
145
100
AcDbEntity
8
0
100
AcDbLine
10
72.925000002053579
20
-100.7249999243114
30
7.6336042537176151e-16
11
72.925000002053565
21
-95.724999999999994
31
7.7062336522647178e-16
0
LINE
5
146
100
AcDbEntity
8
0
100
AcDbLine
10
43.350000011734657
20
6.4749999243114162
30
9.6697916321930012e-15
11
40.80000001173466
21
6.474999954234808
31
9.9820765674848627e-15
0
LINE
5
147
100
AcDbEntity
8
0
100
AcDbLine
10
39.799999999999969
20
5.4749999542348071
30
1.0054102788136327e-14
11
39.799999982614473
21
3.1381026849572891
31
1.6042459924626561e-14
0
LINE
5
148
100
AcDbEntity
8
0
100
AcDbLine
10
69.375000013788224
20
-101.72499995423479
30
1.0756453576450452e-15
11
71.925000013788249
21
-101.72499992431142
31
7.6336042537176151e-16
0
ARC
5
149
100
AcDbEntity
8
0
100
AcDbCircle
10
61.925000002053565
20
-100.72500004165806
30
1.9880072186003291e-15
40
1.0000000000000142
210
1.2246467991473946e-16
220
0
230
1
100
AcDbArc
50
180
51
270.00000067234589
0
ARC
5
150
100
AcDbEntity
8
0
100
AcDbCircle
10
33.350000000000009
20
5.4750000416580571
30
1.0843999977995858e-14
40
1.0000000000000011
210
0
220
-0
230
1
100
AcDbArc
50
89.999999327654137
51
180
0
ARC
5
151
100
AcDbEntity
8
0
100
AcDbCircle
10
66.924999999999983
20
-98.213102631564567
30
1.5023800580804779e-15
40
1.4499999999999957
210
0
220
0
230
1
100
AcDbArc
50
0
51
180
0
ARC
5
152
100
AcDbEntity
8
0
100
AcDbCircle
10
252.90000000000006
20
5.4749999243114136
30
-1.6043120503203075e-14
40
1.0000000000000142
210
1.2246467991473379e-16
220
0
230
1
100
AcDbArc
50
0
51
89.999999327654564
0
LWPOLYLINE
5
153
100
AcDbEntity
8
0
100
AcDbPolyline
90
8
70
1
43
0.0
10
264.42500000000007
20
-3.0249999999999999
42
0.41421356237310447
10
263.92500000000001
20
-2.5249999999999813
10
250.92500000000001
20
-2.5249999999999764
42
0.4142135623729799
10
250.42500000000007
20
-3.0249999999999999
10
250.42500000000004
20
-16.024999999999999
42
0.41421356237294416
10
250.92500000000001
20
-16.525000000000002
10
263.92500000000001
20
-16.52500000000002
42
0.41421356237301959
10
264.42500000000007
20
-16.024999999999999
0
ARC
5
154
100
AcDbEntity
8
0
100
AcDbCircle
10
143.125
20
3.1381026849572891
30
3.3887968703074273e-15
40
1.4499999826144716
210
0
220
0
230
1
100
AcDbArc
50
-180
51
0
0
ARC
5
155
100
AcDbEntity
8
0
100
AcDbCircle
10
64.474999990318892
20
-100.72500001173469
30
1.6757222877641293e-15
40
0.99999999999996092
210
0
220
0
230
1
100
AcDbArc
50
-89.99999932765212
51
0
0
LINE
5
156
100
AcDbEntity
8
0
100
AcDbLine
10
36.900000017385508
20
3.1381026849572891
30
1.6220033708373815e-14
11
36.900000005210067
21
5.4750000169447457
31
1.651547699785236e-14
0
ARC
5
157
100
AcDbEntity
8
0
100
AcDbCircle
10
43.350000000000009
20
5.4749999243114136
30
9.6193531729297212e-15
40
0.99999999999997868
210
0
220
0
230
1
100
AcDbArc
50
0
51
89.999999327654137
0
LWPOLYLINE
5
158
100
AcDbEntity
8
0
100
AcDbPolyline
90
8
70
1
43
0.0
10
136.625
20
-16.525000000000031
42
-0.41421356237298318
10
136.125
20
-16.024999999999999
10
136.125
20
-3.0249999999999999
42
-0.41421356237308915
10
136.625
20
-2.5249999999999946
10
149.625
20
-2.5249999999999857
42
-0.41421356237305762
10
150.125
20
-3.0249999999999999
10
150.125
20
-16.024999999999999
42
-0.41421356237307033
10
149.625
20
-16.524999999999991
0
LINE
5
159
100
AcDbEntity
8
0
100
AcDbLine
10
35.90000001694473
20
6.4750000117346618
30
1.0582153501329224e-14
11
33.350000011734657
21
6.475000041658058
31
1.0843999977995858e-14
0
ARC
5
160
100
AcDbEntity
8
0
100
AcDbCircle
10
69.375000002053582
20
-100.72499995423482
30
1.0756453576450452e-15
40
0.99999999999997868
210
0
220
0
230
1
100
AcDbArc
50
180
51
270.00000067234544
0
LINE
5
161
100
AcDbEntity
8
0
100
AcDbLine
10
220.77500003915958
20
-98.213102631564567
30
-1.7338810951597222e-14
11
220.77500000146892
21
-100.72499995423482
31
-1.7587971861289011e-14
0
LWPOLYLINE
5
162
100
AcDbEntity
8
0
100
AcDbPolyline
90
8
70
1
43
0.0
10
256.78125
20
-59.674999999999983
10
243.78125000000011
20
-59.675000000000047
42
0.41421356237300139
10
243.28125
20
-60.174999999999997
10
243.28125000000011
20
-73.174999999999983
42
0.41421356237306384
10
243.78125000000011
20
-73.675000000000082
10
256.78125
20
-73.674999999999969
42
0.41421356237310025
10
257.28125000000006
20
-73.174999999999983
10
257.28124999999989
20
-60.174999999999997
42
0.41421356237307422
0
LINE
5
163
100
AcDbEntity
8
0
100
AcDbLine
10
284.47500000000002
20
-0.52499999999998437
30
-2.0263011992595733e-14
11
254.90000000000009
21
-0.52499999999998082
31
-1.6540242162716722e-14
0
LWPOLYLINE
5
164
100
AcDbEntity
8
0
100
AcDbPolyline
90
8
70
1
43
0.0
10
269.97500000000002
20
-73.675000000000082
10
282.97500000000008
20
-73.675000000000082
42
0.41421356237310025
10
283.47500000000014
20
-73.174999999999983
10
283.47500000000002
20
-60.174999999999997
42
0.41421356237315227
10
282.97500000000002
20
-59.674999999999969
10
269.97500000000002
20
-59.67500000000004
42
0.41421356237298579
10
269.47500000000008
20
-60.174999999999997
10
269.47500000000002
20
-73.174999999999983
42
0.41421356237284007
0
LINE
5
165
100
AcDbEntity
8
0
100
AcDbLine
10
44.349999999999987
20
0.47499999999999809
30
9.1222315134160695e-15
11
44.349999999999987
21
5.4749999243114136
31
9.6193531729297212e-15
0
LINE
5
166
100
AcDbEntity
8
0
100
AcDbLine
10
148.1250000117347
20
6.4749999243114162
30
-3.161445205873395e-15
11
145.57500001173474
21
6.474999954234808
31
-2.8491602705815351e-15
0
LINE
5
167
100
AcDbEntity
8
0
100
AcDbLine
10
32.350000000000009
20
5.4750000416580571
30
1.0843999977995858e-14
11
32.34999999999998
21
0.47499999999999765
31
1.0836737032222366e-14
0
LINE
5
168
100
AcDbEntity
8
0
100
AcDbLine
10
68.374999999999986
20
-98.213102631564567
30
1.5023800580804779e-15
11
68.375000002053611
21
-100.72499995423482
31
1.0756453576450452e-15
0
ARC
5
169
100
AcDbEntity
8
0
100
AcDbCircle
10
284.47500000000002
20
-93.725000000000023
30
-2.4913438069168849e-14
40
1.0000000000000142
210
0
220
0
230
1
100
AcDbArc
50
-90
51
0
0
ARC
5
170
100
AcDbEntity
8
0
100
AcDbCircle
10
40.799999999999983
20
5.4749999542348071
30
9.9316381082215921e-15
40
1.0000000000000011
210
-5.918789498324653e-25
220
-5.0438459263270881e-17
230
1
100
AcDbArc
50
89.999999327652517
51
180
0
LINE
5
171
100
AcDbEntity
8
0
100
AcDbLine
10
65.474999990318921
20
-100.72500000000005
30
1.55325760844127e-15
11
65.474999960842624
21
-98.213102648579863
31
1.6799538478940136e-15
0
ARC
5
172
100
AcDbEntity
8
0
100
AcDbCircle
10
1.7749999999999844
20
-1.5250000000000019
30
1.4357753019299942e-14
40
1
210
0
220
-0
230
1
100
AcDbArc
50
90
51
180
0
ARC
5
173
100
AcDbEntity
8
0
100
AcDbCircle
10
221.77500000146892
20
-100.72499995423482
30
-1.7587971861289011e-14
40
0.99999999999997868
210
0
220
0
230
1
100
AcDbArc
50
180
51
270.00000067234868
0
LINE
5
174
100
AcDbEntity
8
0
100
AcDbLine
10
213.32500000205371
20
-95.725000000000037
30
-1.6178488334972915e-14
11
213.32500000205371
21
-100.72500004165806
31
-1.6553145320490613e-14
0
ARC
5
175
100
AcDbEntity
8
0
100
AcDbCircle
10
219.32500000000002
20
-98.213102631564567
30
-1.716123716092519e-14
40
1.4500000391596402
210
1.2246467991473739e-16
220
0
230
1
100
AcDbArc
50
0
51
179.99989909565716
0
ARC
5
176
100
AcDbEntity
8
0
100
AcDbCircle
10
31.34999999999998
20
0.4749999999999977
30
1.0836737032222366e-14
40
1.0000000000000004
210
0
220
0
230
1
100
AcDbArc
50
270
51
360
0
LINE
5
177
100
AcDbEntity
8
0
100
AcDbLine
10
226.32500000205368
20
-94.724999999999994
30
-1.7892993853779214e-14
11
284.47500000000002
21
-94.725000000000037
31
-2.4913438069168849e-14
0
ARC
5
178
100
AcDbEntity
8
0
100
AcDbCircle
10
150.125
20
0.47499999999999792
30
-3.7090053246503216e-15
40
0.99999999999999645
210
0
220
0
230
1
100
AcDbArc
50
180
51
270
0
LINE
5
179
100
AcDbEntity
8
0
100
AcDbLine
10
144.57500000000005
20
5.4749999542348071
30
-2.89959872984481e-15
11
144.57500000000005
21
3.1381026849572891
31
3.2112230844310565e-15
0
LINE
5
180
100
AcDbEntity
8
0
100
AcDbLine
10
31.34999999999998
20
-0.5250000000000028
30
1.0836737032222366e-14
11
1.7749999999999844
21
-0.52500000000000191
31
1.4357753019299942e-14
0
ARC
5
181
100
AcDbEntity
8
0
100
AcDbCircle
10
216.87499999031894
20
-100.72500001173466
30
-1.6987894931241538e-14
40
0.99999999999999656
210
0
220
0
230
1
100
AcDbArc
50
-89.99999932765293
51
0
0
ARC
5
182
100
AcDbEntity
8
0
100
AcDbCircle
10
224.32500000205368
20
-100.7249999243114
30
-1.7900256793633917e-14
40
1.0000000000000144
210
-7.7577055849682124e-23
220
6.6108996856132789e-15
230
1
100
AcDbArc
50
-89.999999327649675
51
0
0
LWPOLYLINE
5
183
100
AcDbEntity
8
0
100
AcDbPolyline
90
8
70
1
43
0.0
10
55.662500000000001
20
-78.724999999999994
10
68.662499999999966
20
-78.724999999999994
42
-0.414213562373069
10
69.16249999999998
20
-79.22499999999998
10
69.162500000000051
20
-92.224999999999994
42
-0.41421356237315748
10
68.662499999999966
20
-92.725000000000051
10
55.662500000000001
20
-92.725000000000051
42
-0.41421356237311585
10
55.162500000000001
20
-92.224999999999994
10
55.162500000000009
20
-79.22499999999998
42
-0.4142135623730378
0
LWPOLYLINE
5
184
100
AcDbEntity
8
0
100
AcDbPolyline
90
8
70
1
43
0.0
10
279.50675000000001
20
-56.625000000000085
42
0.41421356237315748
10
280.00675000000001
20
-56.125000000000007
10
280.00675000000001
20
-42.125
42
0.41421356237323032
10
279.50675000000001
20
-41.625000000000014
10
273.50675000000001
20
-41.625
42
0.41421356237309503
10
273.00675000000007
20
-42.125
10
273.00675000000001
20
-56.125000000000007
42
0.41421356237285573
10
273.50675000000001
20
-56.625000000000021
0
LINE
5
185
100
AcDbEntity
8
0
100
AcDbLine
10
149.125
20
0.47499999999999809
30
-3.7090053246503216e-15
11
149.125
21
5.4749999243114136
31
-3.2118836651366699e-15
0
LWPOLYLINE
5
186
100
AcDbEntity
8
0
100
AcDbPolyline
90
8
70
1
43
0.0
10
98.525000000000006
20
-2.5250000000000417
42
0.41421356237320167
10
98.02500000000002
20
-3.0249999999999999
10
98.02500000000002
20
-16.024999999999999
42
0.41421356237298967
10
98.525000000000006
20
-16.524999999999991
10
111.52500000000003
20
-16.524999999999967
42
0.41421356237311324
10
112.02500000000001
20
-16.024999999999999
10
112.02500000000001
20
-3.0249999999999999
42
0.41421356237307422
10
111.52500000000003
20
-2.5249999999999888
0
ARC
5
187
100
AcDbEntity
8
0
100
AcDbCircle
10
38.350000000000009
20
3.1381026849572891
30
1.6220033708373815e-14
40
1.4499999826145071
210
0
220
0
230
1
100
AcDbArc
50
-180
51
0
0
LINE
5
188
100
AcDbEntity
8
0
100
AcDbLine
10
136.12500000000006
20
-0.52500000000000235
30
-2.0449382665443853e-15
11
45.350000000000001
21
-0.52500000000001634
31
9.1222315134160695e-15
0
LINE
5
189
100
AcDbEntity
8
0
100
AcDbLine
10
249.34999999999999
20
5.4749999542348071
30
-1.5730835567911203e-14
11
249.34999998261458
21
3.1381026849572891
31
-9.4424399677589705e-15
0
LWPOLYLINE
5
190
100
AcDbEntity
8
0
100
AcDbPolyline
90
8
70
1
43
0.0
10
255.63075000000003
20
-41.624999999999957
42
-0.41421356237299095
10
256.13075000000003
20
-42.125
10
256.13075000000003
20
-56.125000000000007
42
-0.41421356237310542
10
255.63075000000003
20
-56.625000000000021
10
249.63075000000003
20
-56.625000000000043
42
-0.41421356237292334
10
249.13075000000006
20
-56.125000000000007
10
249.13075000000006
20
-42.125
42
-0.41421356237319906
10
249.63075000000003
20
-41.625000000000007
0
ARC
5
191
100
AcDbEntity
8
0
100
AcDbCircle
10
140.67500000521017
20
5.4750000117346644
30
-2.2995217960004567e-15
40
0.99999999999999645
210
0
220
0
230
1
100
AcDbArc
50
0
51
89.999999327657818
0
LWPOLYLINE
5
192
100
AcDbEntity
8
0
100
AcDbPolyline
90
8
70
1
43
0.0
10
257.56875000000008
20
-54.125000000000021
42
0.41421356237313667
10
258.06875000000008
20
-54.625000000000021
10
271.06875000000002
20
-54.625000000000014
42
0.41421356237291812
10
271.56875000000002
20
-54.125000000000021
10
271.56875000000002
20
-41.125
42
0.41421356237294937
10
271.06875000000002
20
-40.624999999999964
10
258.06875000000002
20
-40.624999999999993
42
0.41421356237303258
10
257.56875000000008
20
-41.125
0
LINE
5
193
100
AcDbEntity
8
0
100
AcDbLine
10
141.67500001738551
20
3.1381026849572891
30
3.3887968703074273e-15
11
141.67500000521014
21
5.4750000169447501
31
3.6842401597859561e-15
0
LWPOLYLINE
5
194
100
AcDbEntity
8
0
100
AcDbPolyline
90
8
70
1
43
0.0
10
130.57499999999999
20
-2.5249999999999946
10
117.575
20
-2.5250000000000519
42
0.41421356237318541
10
117.07500000000003
20
-3.0249999999999999
10
117.07500000000009
20
-16.024999999999999
42
0.41421356237297796
10
117.575
20
-16.525000000000002
10
130.57499999999999
20
-16.525000000000016
42
0.41421356237305862
10
131.07499999999999
20
-16.024999999999999
10
131.07499999999999
20
-3.0249999999999999
42
0.41421356237305795
0
ARC
5
195
100
AcDbEntity
8
0
100
AcDbCircle
10
145.57500000000005
20
5.4749999542348071
30
-2.89959872984481e-15
40
1.0000000000000011
210
-5.9188029378304279e-25
220
-5.0438459263274825e-17
230
1
100
AcDbArc
50
89.999999327651295
51
180
0
ARC
5
196
100
AcDbEntity
8
0
100
AcDbCircle
10
148.125
20
5.4749999243114136
30
-3.2118836651366699e-15
40
0.99999999999999645
210
0
220
0
230
1
100
AcDbArc
50
0
51
89.999999327651295
0
ARC
5
197
100
AcDbEntity
8
0
100
AcDbCircle
10
35.900000005210096
20
5.4750000117346644
30
1.0531715042065942e-14
40
0.99999999999997868
210
0
220
0
230
1
100
AcDbArc
50
0
51
89.999999327654962
0
LINE
5
198
100
AcDbEntity
8
0
100
AcDbLine
10
73.925000002053565
20
-94.724999999999994
30
7.7062336522647178e-16
11
212.32500000205368
21
-94.725000000000023
31
-1.6178488334972915e-14
0
LWPOLYLINE
5
199
100
AcDbEntity
8
0
100
AcDbPolyline
90
8
70
1
43
0.0
10
54.874999999999979
20
-16.024999999999999
42
-0.41421356237308071
10
54.375
20
-16.524999999999991
10
41.374999999999993
20
-16.524999999999988
42
-0.41421356237309892
10
40.874999999999993
20
-16.024999999999999
10
40.874999999999979
20
-3.0249999999999999
42
-0.41421356237307128
10
41.374999999999993
20
-2.5250000000000035
10
54.375
20
-2.5249999999999853
42
-0.41421356237309959
10
54.875000000000028
20
-3.0249999999999999
0
LWPOLYLINE
5
200
100
AcDbEntity
8
0
100
AcDbPolyline
90
8
70
1
43
0.0
10
31.350000000000001
20
-92.224999999999994
42
0.41421356237311585
10
31.849999999999991
20
-92.725000000000023
10
44.850000000000001
20
-92.725000000000023
42
0.41421356237310025
10
45.350000000000001
20
-92.224999999999994
10
45.34999999999998
20
-79.22499999999998
42
0.4142135623730534
10
44.850000000000001
20
-78.724999999999994
10
31.849999999999991
20
-78.724999999999952
42
0.41421356237308204
10
31.34999999999998
20
-79.22499999999998
0
LWPOLYLINE
5
201
100
AcDbEntity
8
0
100
AcDbPolyline
90
24
70
1
43
0.0
10
33.087499999999963
20
-38.100000000000009
10
29.32499999999996
20
-38.100000000000009
42
-0.41421356237309503
10
28.824999999999964
20
-37.600000000000009
10
28.824999999999967
20
-19.550000000000011
42
-0.41421356237310542
10
29.324999999999974
20
-19.050000000000008
10
256.92500000000007
20
-19.050000000000004
42
-0.41421356237307294
10
257.42500000000013
20
-19.550000000000011
10
257.42500000000013
20
-37.600000000000009
42
-0.41421356237316265
10
256.92500000000013
20
-38.100000000000009
10
243.63750000000007
20
-38.100000000000009
42
0.41421356237313667
10
243.13749999999999
20
-38.600000000000009
10
243.13749999999996
20
-56.65000000000002
42
-0.41421356237307422
10
242.63750000000002
20
-57.149999999999999
10
234.1125000000001
20
-57.15000000000002
42
0.41421356237313145
10
233.6125000000001
20
-57.650000000000013
10
233.6125000000001
20
-75.22500000000025
42
-0.41421356237312101
10
233.11250000000007
20
-75.725000000000222
10
43.612499999999983
20
-75.72500000000025
42
-0.41421356237313667
10
43.112499999999983
20
-75.22500000000025
10
43.112499999999997
20
-57.650000000000013
42
0.41421356237313145
10
42.612499999999983
20
-57.15000000000002
10
34.087499999999928
20
-57.149999999999999
42
-0.41421356237311324
10
33.587499999999949
20
-56.65000000000002
10
33.587499999999956
20
-38.600000000000009
42
0.41421356237309503
0
LWPOLYLINE
5
202
100
AcDbEntity
8
0
100
AcDbPolyline
90
8
70
1
43
0.0
10
73.424999999999983
20
-16.525000000000006
10
60.424999999999969
20
-16.524999999999995
42
-0.41421356237310936
10
59.924999999999997
20
-16.024999999999999
10
59.924999999999969
20
-3.0249999999999999
42
-0.41421356237309698
10
60.424999999999969
20
-2.5250000000000017
10
73.424999999999983
20
-2.5249999999999915
42
-0.41421356237309048
10
73.924999999999983
20
-3.0249999999999999
10
73.924999999999983
20
-16.024999999999999
42
-0.414213562373069
0
LWPOLYLINE
5
203
100
AcDbEntity
8
0
100
AcDbPolyline
90
8
70
1
43
0.0
10
82.474999999999952
20
-77.22499999999998
10
82.474999999999966
20
-91.225000000000023
42
0.41421356237307422
10
82.97499999999998
20
-91.725000000000023
10
88.975000000000023
20
-91.725000000000023
42
0.41421356237307422
10
89.475000000000037
20
-91.225000000000023
10
89.475000000000037
20
-77.22499999999998
42
0.41421356237312101
10
88.975000000000051
20
-76.72499999999998
10
82.97499999999998
20
-76.72499999999998
42
0.41421356237295975
0
ARC
5
204
100
AcDbEntity
8
0
100
AcDbCircle
10
136.12500000000006
20
0.4749999999999977
30
-1.9944998058440291e-15
40
1
210
0
220
-5.0438460700356104e-17
230
1
100
AcDbArc
50
-90
51
0
0
LWPOLYLINE
5
205
100
AcDbEntity
8
0
100
AcDbPolyline
90
8
70
1
43
0.0
10
4.8187499999999872
20
-40.625
10
23.418749999999985
20
-40.624999999999964
42
-0.41421356237303519
10
23.918749999999992
20
-41.125
10
23.918749999999953
20
-54.125000000000028
42
-0.41421356237311324
10
23.418749999999985
20
-54.625
10
4.8187499999999872
20
-54.625000000000021
42
-0.41421356237308787
10
4.3187499999999819
20
-54.125000000000021
10
4.3187499999999961
20
-41.125
42
-0.41421356237308071
0
LWPOLYLINE
5
206
100
AcDbEntity
8
0
100
AcDbPolyline
90
8
70
1
43
0.0
10
92.974999999999994
20
-16.024999999999999
10
92.975000000000023
20
-3.0249999999999999
42
0.41421356237319584
10
92.475000000000023
20
-2.5249999999999999
10
79.47499999999998
20
-2.5250000000000092
42
0.41421356237308526
10
78.974999999999966
20
-3.0249999999999999
10
78.974999999999952
20
-16.024999999999999
42
0.4142135623730937
10
79.47499999999998
20
-16.524999999999991
10
92.475000000000023
20
-16.524999999999963
42
0.41421356237311063
0
LWPOLYLINE
5
207
100
AcDbEntity
8
0
100
AcDbPolyline
90
8
70
1
43
0.0
10
16.274999999999974
20
-16.525000000000002
10
3.2749999999999706
20
-16.525000000000006
42
-0.41421356237307322
10
2.7749999999999981
20
-16.025000000000002
10
2.7749999999999697
20
-3.0249999999999999
42
-0.41421356237309631
10
3.2749999999999702
20
-2.5249999999999999
10
16.274999999999974
20
-2.524999999999995
42
-0.41421356237309243
10
16.774999999999984
20
-3.0249999999999999
10
16.774999999999984
20
-16.024999999999999
42
-0.41421356237308854
0
LINE
5
208
100
AcDbEntity
8
0
100
AcDbLine
10
217.87499999031891
20
-100.72499999999998
30
-1.7110359610564391e-14
11
217.87499996084262
21
-98.213100077950628
31
-1.716123716092519e-14
0
LINE
5
209
100
AcDbEntity
8
0
100
AcDbLine
10
225.32500000205371
20
-100.7249999243114
30
-1.7900256793633917e-14
11
225.32500000205368
21
-95.724999999999994
31
-1.7892993853779214e-14
0
ARC
5
210
100
AcDbEntity
8
0
100
AcDbCircle
10
214.32500000205368
20
-100.72500004165806
30
-1.6675610000405348e-14
40
1.0000000000000142
210
1.2246467991473816e-16
220
0
230
1
100
AcDbArc
50
180
51
270.00000067235032
0
LINE
5
211
100
AcDbEntity
8
0
100
AcDbLine
10
140.67500001694475
20
6.4750000117346609
30
-2.2995217960004567e-15
11
138.1250000117347
21
6.4750000416580589
31
-1.9872368600705389e-15
0
ARC
5
212
100
AcDbEntity
8
0
100
AcDbCircle
10
138.12500000000003
20
5.4750000416580571
30
-1.9872368600705389e-15
40
1.0000000000000022
210
0
220
-0
230
1
100
AcDbArc
50
89.99999932765293
51
180
0
LINE
5
213
100
AcDbEntity
8
0
100
AcDbLine
10
137.12500000000003
20
5.4750000416580571
30
-1.9872368600705389e-15
11
137.12500000000006
21
0.4749999999999977
31
-1.9944998058440291e-15
0
LWPOLYLINE
5
214
100
AcDbEntity
8
0
100
AcDbPolyline
90
8
70
1
43
0.0
10
128.37500000000003
20
-89.22499999999998
10
128.37500000000003
20
-82.22499999999998
42
0.41421356237314705
10
127.87500000000009
20
-81.72499999999998
10
97.225000000000037
20
-81.72499999999998
42
0.41421356237307422
10
96.725000000000023
20
-82.22499999999998
10
96.725000000000023
20
-89.22499999999998
42
0.41421356237307422
10
97.225000000000037
20
-89.72499999999998
10
127.87500000000009
20
-89.725000000000023
42
0.41421356237310542
0
LWPOLYLINE
5
215
100
AcDbEntity
8
0
100
AcDbPolyline
90
8
70
1
43
0.0
10
189.02500000000001
20
-89.224999999999923
10
189.02500000000001
20
-82.224999999999895
42
0.41421356237315748
10
188.52499999999995
20
-81.724999999999881
10
157.875
20
-81.72499999999998
42
0.41421356237316787
10
157.375
20
-82.224999999999966
10
157.37500000000009
20
-89.224999999999937
42
0.41421356237304302
10
157.87500000000006
20
-89.72499999999998
10
188.52499999999995
20
-89.724999999999895
42
0.41421356237313667
0
ENDSEC
0
SECTION
2
OBJECTS
0
DICTIONARY
5
C
100
AcDbDictionary
3
ACAD_GROUP
350
D
3
ACAD_MLINESTYLE
350
17
0
DICTIONARY
5
D
100
AcDbDictionary
0
DICTIONARY
5
1A
330
C
100
AcDbDictionary
0
DICTIONARY
5
17
100
AcDbDictionary
0
ENDSEC
0
EOF
